G04*
G04 #@! TF.GenerationSoftware,Altium Limited,Altium Designer,24.3.1 (35)*
G04*
G04 Layer_Color=8421504*
%FSLAX25Y25*%
%MOIN*%
G70*
G04*
G04 #@! TF.SameCoordinates,123E1010-60DA-4942-A273-68E87F3E8610*
G04*
G04*
G04 #@! TF.FilePolarity,Positive*
G04*
G01*
G75*
%ADD17R,0.03543X0.02756*%
%ADD18R,0.04724X0.06496*%
%ADD19R,0.06496X0.04724*%
%ADD20R,0.02756X0.03543*%
%ADD21R,0.02165X0.07874*%
%ADD22R,0.02165X0.07874*%
%ADD23R,0.03347X0.03740*%
D17*
X283465Y307109D02*
D03*
Y312621D02*
D03*
X293307Y307109D02*
D03*
Y312621D02*
D03*
X246023Y571971D02*
D03*
Y577483D02*
D03*
X251928Y585357D02*
D03*
Y579845D02*
D03*
X246082Y234673D02*
D03*
Y240185D02*
D03*
X251987Y248059D02*
D03*
Y242547D02*
D03*
X293307Y297953D02*
D03*
Y292441D02*
D03*
X303150Y297953D02*
D03*
Y292441D02*
D03*
X283465Y297953D02*
D03*
Y292441D02*
D03*
X303150Y312621D02*
D03*
Y307109D02*
D03*
X283465Y129220D02*
D03*
Y123708D02*
D03*
X293307Y129220D02*
D03*
Y123708D02*
D03*
X303150Y129220D02*
D03*
Y123708D02*
D03*
Y143984D02*
D03*
Y138472D02*
D03*
X246023Y66732D02*
D03*
Y72244D02*
D03*
X251928Y80118D02*
D03*
Y74606D02*
D03*
X283465Y143984D02*
D03*
Y138472D02*
D03*
X293307Y143984D02*
D03*
Y138472D02*
D03*
X246023Y409286D02*
D03*
Y403774D02*
D03*
X251928Y411648D02*
D03*
Y417160D02*
D03*
X303150Y476574D02*
D03*
Y482086D02*
D03*
X293307Y476574D02*
D03*
Y482086D02*
D03*
X303150Y460826D02*
D03*
Y466338D02*
D03*
X293307Y460826D02*
D03*
Y466338D02*
D03*
X283465Y476574D02*
D03*
Y482086D02*
D03*
Y460826D02*
D03*
Y466338D02*
D03*
X293307Y643898D02*
D03*
Y649409D02*
D03*
X283465Y643898D02*
D03*
Y649409D02*
D03*
X303150Y643898D02*
D03*
Y649409D02*
D03*
X283465Y629134D02*
D03*
Y634646D02*
D03*
X293307Y629134D02*
D03*
Y634646D02*
D03*
X303150Y629134D02*
D03*
Y634646D02*
D03*
D18*
X225590Y547244D02*
D03*
X214567D02*
D03*
X192480Y568821D02*
D03*
X181456D02*
D03*
X192480Y592443D02*
D03*
X181456D02*
D03*
X225944Y614097D02*
D03*
X214921D02*
D03*
X225590Y209842D02*
D03*
X214567D02*
D03*
X226003Y276799D02*
D03*
X214980D02*
D03*
X192539Y231524D02*
D03*
X181515D02*
D03*
X192539Y255146D02*
D03*
X181515D02*
D03*
X225944Y41929D02*
D03*
X214921D02*
D03*
X192480Y63583D02*
D03*
X181456D02*
D03*
X192480Y87205D02*
D03*
X181456D02*
D03*
X225944Y108858D02*
D03*
X214921D02*
D03*
X181456Y400625D02*
D03*
X192480D02*
D03*
X214173Y378740D02*
D03*
X225197D02*
D03*
X181456Y424247D02*
D03*
X192480D02*
D03*
X214921Y445900D02*
D03*
X225944D02*
D03*
D19*
X163386Y587205D02*
D03*
Y576181D02*
D03*
Y249606D02*
D03*
Y238583D02*
D03*
Y81299D02*
D03*
Y70276D02*
D03*
Y407874D02*
D03*
Y418898D02*
D03*
D20*
X223188Y558979D02*
D03*
X217676D02*
D03*
X199566Y582601D02*
D03*
X194054D02*
D03*
X223188Y602286D02*
D03*
X217676D02*
D03*
X223247Y221681D02*
D03*
X217736D02*
D03*
X223247Y264988D02*
D03*
X217736D02*
D03*
X199625Y245303D02*
D03*
X194113D02*
D03*
X414258Y58315D02*
D03*
X419770D02*
D03*
X414258Y65205D02*
D03*
X419770D02*
D03*
X414258Y72095D02*
D03*
X419770D02*
D03*
X333471Y55362D02*
D03*
X338983D02*
D03*
X348136Y55362D02*
D03*
X353648D02*
D03*
X333471Y71110D02*
D03*
X338983D02*
D03*
X348136Y71110D02*
D03*
X353648D02*
D03*
X333471Y63236D02*
D03*
X338983D02*
D03*
X348136Y63236D02*
D03*
X353648D02*
D03*
X223188Y53740D02*
D03*
X217676D02*
D03*
X199566Y77362D02*
D03*
X194054D02*
D03*
X223188Y97047D02*
D03*
X217676D02*
D03*
Y390782D02*
D03*
X223188D02*
D03*
X217676Y434089D02*
D03*
X223188D02*
D03*
X194054Y414404D02*
D03*
X199566D02*
D03*
D21*
X212401Y570790D02*
D03*
X217401D02*
D03*
X222401D02*
D03*
X227401D02*
D03*
X212460Y233492D02*
D03*
X217460D02*
D03*
X222460D02*
D03*
X227460D02*
D03*
X212401Y65551D02*
D03*
X217401D02*
D03*
X222401D02*
D03*
X227401D02*
D03*
Y402593D02*
D03*
X222401D02*
D03*
X217401D02*
D03*
X212401D02*
D03*
D22*
Y590081D02*
D03*
X217401D02*
D03*
X222401D02*
D03*
X227401D02*
D03*
X212460Y252783D02*
D03*
X217460D02*
D03*
X222460D02*
D03*
X227460D02*
D03*
X212401Y84842D02*
D03*
X217401D02*
D03*
X222401D02*
D03*
X227401D02*
D03*
Y421884D02*
D03*
X222401D02*
D03*
X217401D02*
D03*
X212401D02*
D03*
D23*
X271023Y574727D02*
D03*
X276141D02*
D03*
X271023Y582601D02*
D03*
X276141D02*
D03*
X271082Y245303D02*
D03*
X276200D02*
D03*
X271082Y237429D02*
D03*
X276200D02*
D03*
X271023Y69488D02*
D03*
X276141D02*
D03*
X271023Y77362D02*
D03*
X276141D02*
D03*
Y406530D02*
D03*
X271023D02*
D03*
X276141Y414404D02*
D03*
X271023D02*
D03*
M02*
