G04*
G04 #@! TF.GenerationSoftware,Altium Limited,Altium Designer,24.3.1 (35)*
G04*
G04 Layer_Color=16711935*
%FSLAX25Y25*%
%MOIN*%
G70*
G04*
G04 #@! TF.SameCoordinates,6EAF52BE-100F-42CA-B0A0-A125D61700B2*
G04*
G04*
G04 #@! TF.FilePolarity,Negative*
G04*
G01*
G75*
%ADD35C,0.12611*%
%ADD36C,0.15761*%
%ADD37C,0.07887*%
%ADD38C,0.09855*%
%ADD39C,0.13595*%
%ADD40C,0.06312*%
%ADD41R,0.09068X0.09068*%
%ADD42C,0.09068*%
%ADD43C,0.08450*%
%ADD44C,0.14087*%
%ADD45C,0.19698*%
%ADD46C,0.07296*%
G04:AMPARAMS|DCode=47|XSize=72.96mil|YSize=72.96mil|CornerRadius=20.24mil|HoleSize=0mil|Usage=FLASHONLY|Rotation=270.000|XOffset=0mil|YOffset=0mil|HoleType=Round|Shape=RoundedRectangle|*
%AMROUNDEDRECTD47*
21,1,0.07296,0.03248,0,0,270.0*
21,1,0.03248,0.07296,0,0,270.0*
1,1,0.04048,-0.01624,-0.01624*
1,1,0.04048,-0.01624,0.01624*
1,1,0.04048,0.01624,0.01624*
1,1,0.04048,0.01624,-0.01624*
%
%ADD47ROUNDEDRECTD47*%
%ADD48C,0.13005*%
%ADD49C,0.05761*%
%ADD50C,0.05800*%
D35*
X476378Y248031D02*
D03*
Y307087D02*
D03*
Y366142D02*
D03*
Y425197D02*
D03*
D36*
X492126Y307087D02*
D03*
Y248031D02*
D03*
Y425197D02*
D03*
Y366142D02*
D03*
D37*
X483339Y270598D02*
D03*
X469417Y284520D02*
D03*
X483339D02*
D03*
X469417Y270598D02*
D03*
X483339Y388709D02*
D03*
X469417Y402630D02*
D03*
X483339D02*
D03*
X469417Y388709D02*
D03*
D38*
X493701Y548307D02*
D03*
Y487382D02*
D03*
D39*
X481919Y540394D02*
D03*
Y495394D02*
D03*
D40*
X446919Y535374D02*
D03*
X456919Y530374D02*
D03*
X446919Y525374D02*
D03*
X456919Y520374D02*
D03*
X446919Y515374D02*
D03*
X456919Y510374D02*
D03*
X446919Y505374D02*
D03*
X456919Y500374D02*
D03*
D41*
X400826Y143465D02*
D03*
Y312383D02*
D03*
Y480890D02*
D03*
Y648794D02*
D03*
D42*
Y123465D02*
D03*
Y93465D02*
D03*
X320826D02*
D03*
Y133465D02*
D03*
Y173465D02*
D03*
X400826Y292383D02*
D03*
Y262383D02*
D03*
X320826D02*
D03*
Y302382D02*
D03*
Y342383D02*
D03*
X400826Y460889D02*
D03*
Y430890D02*
D03*
X320826D02*
D03*
Y470890D02*
D03*
Y510889D02*
D03*
X400826Y628794D02*
D03*
Y598794D02*
D03*
X320826D02*
D03*
Y638794D02*
D03*
Y678794D02*
D03*
D43*
X476699Y91850D02*
D03*
X436699D02*
D03*
Y51850D02*
D03*
X476699D02*
D03*
X477093Y176496D02*
D03*
X437093D02*
D03*
Y136496D02*
D03*
X477093D02*
D03*
D44*
X451659Y71850D02*
D03*
X452053Y156496D02*
D03*
D45*
X131102Y566535D02*
D03*
Y664961D02*
D03*
Y398031D02*
D03*
Y496457D02*
D03*
Y159449D02*
D03*
Y61024D02*
D03*
Y229528D02*
D03*
Y327953D02*
D03*
D46*
X125512Y632106D02*
D03*
Y621201D02*
D03*
Y610295D02*
D03*
Y599390D02*
D03*
X136693Y604843D02*
D03*
Y637559D02*
D03*
Y626653D02*
D03*
Y615748D02*
D03*
X125512Y463602D02*
D03*
Y452697D02*
D03*
Y441791D02*
D03*
Y430886D02*
D03*
X136693Y436339D02*
D03*
Y469055D02*
D03*
Y458150D02*
D03*
Y447244D02*
D03*
X125512Y126594D02*
D03*
X136693Y110236D02*
D03*
Y121142D02*
D03*
Y132047D02*
D03*
Y99331D02*
D03*
X125512Y93878D02*
D03*
Y104783D02*
D03*
Y115689D02*
D03*
Y295098D02*
D03*
X136693Y289646D02*
D03*
Y278740D02*
D03*
Y300551D02*
D03*
Y267835D02*
D03*
X125512Y262382D02*
D03*
Y273287D02*
D03*
Y284193D02*
D03*
D47*
X136693Y593937D02*
D03*
Y425433D02*
D03*
Y88425D02*
D03*
Y256929D02*
D03*
D48*
X113612Y688976D02*
D03*
X485235Y29528D02*
D03*
X113583D02*
D03*
X485223Y688976D02*
D03*
D49*
X341653Y27803D02*
D03*
X351653D02*
D03*
X361653D02*
D03*
X381653D02*
D03*
X391653D02*
D03*
D50*
X433425Y512285D02*
D03*
X458661Y259604D02*
D03*
X452756Y293564D02*
D03*
X446573Y275425D02*
D03*
X440945Y284541D02*
D03*
X448819Y187008D02*
D03*
X480315D02*
D03*
X334547Y454921D02*
D03*
X333169Y283563D02*
D03*
X331791Y115453D02*
D03*
X335531Y155413D02*
D03*
X272342Y122933D02*
D03*
X273524Y149902D02*
D03*
X273721Y176279D02*
D03*
X274705Y289075D02*
D03*
X274902Y317618D02*
D03*
X275098Y345177D02*
D03*
X335335Y323130D02*
D03*
X334744Y490945D02*
D03*
X274705Y457677D02*
D03*
X276476Y486811D02*
D03*
X276673Y512992D02*
D03*
X336024Y660630D02*
D03*
X275000Y626673D02*
D03*
X274803Y656004D02*
D03*
X275098Y681595D02*
D03*
X257856Y405054D02*
D03*
X258405Y236071D02*
D03*
X257259Y68158D02*
D03*
X306693Y29134D02*
D03*
X353543Y400000D02*
D03*
X353937Y570079D02*
D03*
Y538818D02*
D03*
Y489906D02*
D03*
Y441670D02*
D03*
Y370130D02*
D03*
Y316881D02*
D03*
Y267427D02*
D03*
Y231928D02*
D03*
Y199545D02*
D03*
Y167026D02*
D03*
Y128818D02*
D03*
Y91732D02*
D03*
X284646Y245276D02*
D03*
Y237191D02*
D03*
X108268Y149016D02*
D03*
Y110480D02*
D03*
Y75508D02*
D03*
Y317520D02*
D03*
Y278984D02*
D03*
Y244012D02*
D03*
Y486024D02*
D03*
Y447487D02*
D03*
Y412516D02*
D03*
Y581020D02*
D03*
Y615991D02*
D03*
Y654528D02*
D03*
X366180Y220160D02*
D03*
X284449Y582283D02*
D03*
Y574803D02*
D03*
X374016Y561024D02*
D03*
X366142Y555789D02*
D03*
X309055Y568898D02*
D03*
X261771Y547167D02*
D03*
X373031Y390748D02*
D03*
X374016Y226378D02*
D03*
X284449Y77756D02*
D03*
Y68898D02*
D03*
X163818Y176621D02*
D03*
X193346D02*
D03*
X218936D02*
D03*
X246495D02*
D03*
X163818Y344827D02*
D03*
X193346D02*
D03*
X218936D02*
D03*
X246495D02*
D03*
X163818Y512494D02*
D03*
X193346D02*
D03*
X218936D02*
D03*
X246495D02*
D03*
X163818Y681643D02*
D03*
X193346D02*
D03*
X218936D02*
D03*
X246495D02*
D03*
X155512Y598425D02*
D03*
X163386D02*
D03*
X154528Y431102D02*
D03*
X162402D02*
D03*
X163386Y261811D02*
D03*
X154528D02*
D03*
X186968Y583530D02*
D03*
Y547167D02*
D03*
Y613112D02*
D03*
X238189Y578740D02*
D03*
X261771Y613112D02*
D03*
X255865Y572758D02*
D03*
X261771Y582601D02*
D03*
X262342Y244929D02*
D03*
Y209496D02*
D03*
Y275441D02*
D03*
X238917Y241189D02*
D03*
X187539Y245859D02*
D03*
Y275441D02*
D03*
Y209496D02*
D03*
X219035Y298079D02*
D03*
X193444Y317764D02*
D03*
X219035D02*
D03*
X246594Y298079D02*
D03*
Y317764D02*
D03*
X193444Y298079D02*
D03*
X163917Y317764D02*
D03*
Y298079D02*
D03*
X305512Y232283D02*
D03*
X365590Y42567D02*
D03*
X374054Y59299D02*
D03*
X261259Y107527D02*
D03*
X186456Y41583D02*
D03*
Y77945D02*
D03*
X163386Y93504D02*
D03*
X154528D02*
D03*
X186456Y107527D02*
D03*
X261259Y78455D02*
D03*
Y41583D02*
D03*
X287552Y60847D02*
D03*
X193346Y128197D02*
D03*
Y147882D02*
D03*
X218936Y128197D02*
D03*
Y147882D02*
D03*
X246495Y128197D02*
D03*
Y147882D02*
D03*
X239409Y73669D02*
D03*
X163818Y128197D02*
D03*
Y147882D02*
D03*
X366395Y385335D02*
D03*
X304724Y400000D02*
D03*
X283979Y406142D02*
D03*
Y414910D02*
D03*
X164033Y486122D02*
D03*
X193561D02*
D03*
X219151D02*
D03*
X246710D02*
D03*
X164033Y466437D02*
D03*
X193561D02*
D03*
X219151D02*
D03*
X246710D02*
D03*
X261793Y444424D02*
D03*
X186990D02*
D03*
Y378479D02*
D03*
X261793Y378479D02*
D03*
X186990Y414842D02*
D03*
X261793Y414896D02*
D03*
X239156Y409975D02*
D03*
X246495Y636071D02*
D03*
X218936D02*
D03*
X193346D02*
D03*
X163818D02*
D03*
X246495Y655756D02*
D03*
X218936D02*
D03*
X193346D02*
D03*
X163818D02*
D03*
M02*
