G04*
G04 #@! TF.GenerationSoftware,Altium Limited,Altium Designer,24.3.1 (35)*
G04*
G04 Layer_Physical_Order=2*
G04 Layer_Color=16711680*
%FSLAX25Y25*%
%MOIN*%
G70*
G04*
G04 #@! TF.SameCoordinates,3C7FD246-1820-4449-9F48-372C7E3DD473*
G04*
G04*
G04 #@! TF.FilePolarity,Positive*
G04*
G01*
G75*
%ADD47C,0.01500*%
%ADD49C,0.07087*%
%ADD50C,0.14961*%
%ADD51C,0.11811*%
%ADD52C,0.07650*%
%ADD53C,0.13287*%
%ADD54C,0.18898*%
%ADD55C,0.06496*%
G04:AMPARAMS|DCode=56|XSize=64.96mil|YSize=64.96mil|CornerRadius=16.24mil|HoleSize=0mil|Usage=FLASHONLY|Rotation=270.000|XOffset=0mil|YOffset=0mil|HoleType=Round|Shape=RoundedRectangle|*
%AMROUNDEDRECTD56*
21,1,0.06496,0.03248,0,0,270.0*
21,1,0.03248,0.06496,0,0,270.0*
1,1,0.03248,-0.01624,-0.01624*
1,1,0.03248,-0.01624,0.01624*
1,1,0.03248,0.01624,0.01624*
1,1,0.03248,0.01624,-0.01624*
%
%ADD56ROUNDEDRECTD56*%
%ADD57C,0.05512*%
%ADD58C,0.12795*%
%ADD59C,0.09055*%
%ADD60R,0.08268X0.08268*%
%ADD61C,0.08268*%
%ADD62C,0.12205*%
%ADD63C,0.04961*%
%ADD64C,0.05000*%
G36*
X325197Y686614D02*
X328740Y683071D01*
X328740Y668898D01*
X307087Y647244D01*
X271654Y647244D01*
X267716Y643307D01*
X133858D01*
X131169Y640618D01*
Y630775D01*
X127953Y627559D01*
X120079D01*
X116142Y631496D01*
Y649213D01*
X124108Y657178D01*
X124295Y656991D01*
X125626Y656024D01*
X127091Y655277D01*
X128656Y654769D01*
X130280Y654512D01*
X131925D01*
X133549Y654769D01*
X135113Y655277D01*
X136579Y656024D01*
X137909Y656991D01*
X139072Y658154D01*
X140039Y659484D01*
X140786Y660950D01*
X141294Y662514D01*
X141551Y664138D01*
Y664961D01*
X289370Y664961D01*
X311023Y686614D01*
X325197Y686614D01*
D02*
G37*
G36*
X342480Y692126D02*
Y620276D01*
X335590Y613386D01*
X328607D01*
X309776Y632217D01*
X309445Y632438D01*
X309055Y632516D01*
X279950D01*
X269158Y643307D01*
X272076Y646224D01*
X307087Y646224D01*
X307477Y646302D01*
X307808Y646523D01*
X329461Y668177D01*
X329682Y668507D01*
X329760Y668898D01*
X329760Y683071D01*
X329682Y683461D01*
X329461Y683792D01*
X325918Y687335D01*
X325587Y687556D01*
X325197Y687634D01*
X311023Y687634D01*
X310633Y687556D01*
X310303Y687335D01*
X288948Y665980D01*
X141551Y665980D01*
X141161Y665903D01*
X140830Y665682D01*
X140609Y665351D01*
X140532Y664961D01*
Y664219D01*
X140299Y662753D01*
X139841Y661341D01*
X139167Y660019D01*
X138295Y658818D01*
X137245Y657768D01*
X136044Y656896D01*
X134722Y656222D01*
X133310Y655764D01*
X131844Y655531D01*
X130360D01*
X128894Y655764D01*
X127483Y656222D01*
X126160Y656896D01*
X124960Y657768D01*
X124829Y657900D01*
X124498Y658120D01*
X124108Y658198D01*
X123717Y658120D01*
X123387Y657900D01*
X115421Y649934D01*
X115200Y649603D01*
X115122Y649213D01*
Y631496D01*
X115200Y631106D01*
X115421Y630775D01*
X119358Y626838D01*
X119689Y626617D01*
X120079Y626540D01*
X127953D01*
X128343Y626617D01*
X128674Y626838D01*
X131890Y630054D01*
X132111Y630385D01*
X132188Y630775D01*
Y633039D01*
X132650Y633230D01*
X135700Y630181D01*
X136031Y629960D01*
X136421Y629882D01*
X137118D01*
X137939Y629662D01*
X138675Y629237D01*
X139276Y628636D01*
X139701Y627900D01*
X139863Y627295D01*
X139893Y627235D01*
X139906Y627169D01*
X139980Y627058D01*
X140039Y626938D01*
X140090Y626894D01*
X140127Y626838D01*
X140238Y626764D01*
X140338Y626676D01*
X140402Y626654D01*
X140458Y626617D01*
X140589Y626591D01*
X140715Y626548D01*
X140782Y626553D01*
X140848Y626540D01*
X145629D01*
Y602594D01*
X140800D01*
X140550Y603027D01*
X140652Y603203D01*
X140941Y604283D01*
Y605402D01*
X140652Y606482D01*
X140092Y607451D01*
X139301Y608242D01*
X138333Y608801D01*
X137252Y609091D01*
X136134D01*
X135053Y608801D01*
X134085Y608242D01*
X133294Y607451D01*
X132734Y606482D01*
X132445Y605402D01*
Y604283D01*
X132720Y603258D01*
X132642Y603067D01*
X132429Y602757D01*
X132137Y602729D01*
X128634Y606233D01*
X128303Y606454D01*
X128262Y606553D01*
X128207Y606983D01*
X128911Y607687D01*
X129470Y608656D01*
X129760Y609736D01*
Y610854D01*
X129470Y611935D01*
X128911Y612904D01*
X128120Y613694D01*
X127152Y614254D01*
X126071Y614543D01*
X124953D01*
X123872Y614254D01*
X122904Y613694D01*
X122113Y612904D01*
X121553Y611935D01*
X121264Y610854D01*
Y609736D01*
X121553Y608656D01*
X122113Y607687D01*
X122768Y607031D01*
X122577Y606531D01*
X122007D01*
X121617Y606454D01*
X121286Y606233D01*
X119318Y604264D01*
X119097Y603933D01*
X119019Y603543D01*
Y589764D01*
X119097Y589374D01*
X119318Y589043D01*
X132249Y576112D01*
X132316Y576067D01*
X132370Y576008D01*
X132479Y575958D01*
X132579Y575891D01*
X132658Y575875D01*
X132731Y575842D01*
X134025Y575531D01*
X135205Y575042D01*
X135595Y574965D01*
X145629D01*
Y561439D01*
X138521Y554331D01*
X121457D01*
X100536Y575252D01*
Y666535D01*
X115510Y681510D01*
X115856Y681579D01*
X117256Y682159D01*
X118516Y683001D01*
X119588Y684072D01*
X120430Y685332D01*
X121010Y686732D01*
X121078Y687078D01*
X132032Y698032D01*
X336574D01*
X342480Y692126D01*
D02*
G37*
G36*
X279528Y631496D02*
X309055D01*
X328740Y611811D01*
Y596063D01*
X324803Y592126D01*
X316929D01*
X295275Y613779D01*
X277559Y613779D01*
X263779Y627559D01*
X140848D01*
X140652Y628293D01*
X140092Y629262D01*
X139301Y630053D01*
X138333Y630612D01*
X137252Y630902D01*
X136421D01*
X132188Y635134D01*
Y639669D01*
X134807Y642287D01*
X267716D01*
X268107Y642365D01*
X268437Y642586D01*
X268437Y642586D01*
X279528Y631496D01*
D02*
G37*
G36*
X295050Y589949D02*
X302497Y582502D01*
X302306Y582040D01*
X288192D01*
X287979Y582283D01*
X287859Y583197D01*
X287506Y584049D01*
X286945Y584780D01*
X286214Y585341D01*
X285363Y585693D01*
X284449Y585814D01*
X283535Y585693D01*
X282684Y585341D01*
X281953Y584780D01*
X281392Y584049D01*
X281039Y583197D01*
X280919Y582283D01*
X281039Y581370D01*
X281392Y580518D01*
X281953Y579787D01*
X282684Y579226D01*
X283535Y578874D01*
X284128Y578795D01*
Y578291D01*
X283535Y578213D01*
X282684Y577860D01*
X281953Y577299D01*
X281392Y576568D01*
X281039Y575717D01*
X280919Y574803D01*
X281039Y573889D01*
X281392Y573038D01*
X281953Y572307D01*
X282684Y571746D01*
X283535Y571393D01*
X284449Y571273D01*
X285363Y571393D01*
X286214Y571746D01*
X286945Y572307D01*
X287506Y573038D01*
X287859Y573889D01*
X287979Y574803D01*
X287881Y575547D01*
X288209Y575929D01*
X288279Y575972D01*
X358306D01*
X360670Y573608D01*
X360670Y562808D01*
X273377D01*
X265564Y570621D01*
Y579792D01*
X265428Y580475D01*
X265041Y581054D01*
X265041Y581054D01*
X264955Y581141D01*
X265181Y581687D01*
X265301Y582601D01*
X265181Y583514D01*
X264828Y584366D01*
X264267Y585097D01*
X263536Y585658D01*
X262685Y586011D01*
X261771Y586131D01*
X260857Y586011D01*
X260006Y585658D01*
X259275Y585097D01*
X258714Y584366D01*
X258361Y583514D01*
X258241Y582601D01*
X258361Y581687D01*
X258714Y580835D01*
X259275Y580104D01*
X260006Y579543D01*
X260857Y579191D01*
X261771Y579070D01*
X261995Y578611D01*
Y569882D01*
X262131Y569199D01*
X262518Y568620D01*
X271376Y559762D01*
X271376Y559762D01*
X271955Y559375D01*
X272638Y559239D01*
X272638Y559239D01*
X360669D01*
X360669Y555918D01*
X316129D01*
X315933Y556114D01*
X295050D01*
X294854Y555918D01*
X269440D01*
X257842Y567516D01*
Y569863D01*
X258362Y570262D01*
X258923Y570993D01*
X259275Y571844D01*
X259396Y572758D01*
X259275Y573672D01*
X258923Y574523D01*
X258362Y575254D01*
X257630Y575815D01*
X256779Y576168D01*
X255865Y576288D01*
X254952Y576168D01*
X254100Y575815D01*
X253369Y575254D01*
X252808Y574523D01*
X252455Y573672D01*
X252335Y572758D01*
X252455Y571844D01*
X252808Y570993D01*
X253369Y570262D01*
X254100Y569701D01*
X254273Y569629D01*
Y566777D01*
X254409Y566094D01*
X254796Y565515D01*
X267439Y552872D01*
X268018Y552485D01*
X268701Y552350D01*
X290633D01*
X290824Y551888D01*
X275551Y536614D01*
X184999D01*
X175157Y546457D01*
Y613386D01*
X184999Y623228D01*
X261771D01*
X295050Y589949D01*
D02*
G37*
G36*
X286889Y581699D02*
X286905Y581643D01*
X286936Y581575D01*
X286984Y581497D01*
X287048Y581406D01*
X287224Y581192D01*
X287464Y580933D01*
X287608Y580786D01*
X286547Y579726D01*
X286437Y579832D01*
X286240Y580003D01*
X286151Y580068D01*
X286071Y580119D01*
X285997Y580156D01*
X285931Y580179D01*
X285872Y580188D01*
X285820Y580183D01*
X285775Y580164D01*
X286890Y581744D01*
X286889Y581699D01*
D02*
G37*
G36*
X263875Y581232D02*
X263856Y581152D01*
X263854Y581066D01*
X263869Y580975D01*
X263900Y580879D01*
X263948Y580778D01*
X264014Y580672D01*
X264096Y580560D01*
X264194Y580444D01*
X264310Y580323D01*
X263249Y579262D01*
X263078Y579429D01*
X262625Y579821D01*
X262493Y579915D01*
X262372Y579990D01*
X262261Y580048D01*
X262160Y580087D01*
X262069Y580108D01*
X261988Y580110D01*
X263911Y581308D01*
X263875Y581232D01*
D02*
G37*
G36*
X131850Y601575D02*
X133973D01*
X134551Y601132D01*
X135584Y600704D01*
X136693Y600558D01*
X137802Y600704D01*
X138835Y601132D01*
X139412Y601575D01*
X149566D01*
X151535Y603543D01*
X165314D01*
X171260Y597598D01*
Y583898D01*
X163346Y575984D01*
X135595D01*
X134341Y576504D01*
X132970Y576833D01*
X120039Y589764D01*
Y603543D01*
X122007Y605512D01*
X127913Y605512D01*
X131850Y601575D01*
D02*
G37*
G36*
X372230Y559274D02*
X372033Y559464D01*
X371833Y559634D01*
X371630Y559784D01*
X371424Y559914D01*
X371215Y560024D01*
X371004Y560114D01*
X370790Y560184D01*
X370573Y560234D01*
X370353Y560264D01*
X370131Y560274D01*
Y561774D01*
X370353Y561784D01*
X370573Y561814D01*
X370790Y561864D01*
X371004Y561934D01*
X371215Y562024D01*
X371424Y562134D01*
X371630Y562264D01*
X371833Y562414D01*
X372033Y562584D01*
X372230Y562774D01*
Y559274D01*
D02*
G37*
G36*
X324410Y518110D02*
X328740Y513779D01*
X328740Y500394D01*
X307087Y478740D01*
X271654Y478740D01*
X268437Y475524D01*
X268107Y475745D01*
X267717Y475823D01*
X135827Y475823D01*
X135437Y475745D01*
X135106Y475524D01*
X134385Y474803D01*
X133858D01*
X131169Y472114D01*
Y471587D01*
X131169Y471587D01*
X130948Y471256D01*
X130870Y470866D01*
X130870Y466929D01*
X130948Y466539D01*
X131169Y466208D01*
X131169Y466208D01*
Y462271D01*
X127953Y459055D01*
X120079D01*
X116142Y462992D01*
Y480709D01*
X124108Y488675D01*
X124295Y488487D01*
X125626Y487520D01*
X127091Y486773D01*
X128656Y486265D01*
X130280Y486008D01*
X131925D01*
X133549Y486265D01*
X135113Y486773D01*
X136579Y487520D01*
X137909Y488487D01*
X139072Y489650D01*
X140039Y490980D01*
X140786Y492446D01*
X141294Y494010D01*
X141551Y495634D01*
Y496457D01*
X289370D01*
X311023Y518110D01*
X324410Y518110D01*
D02*
G37*
G36*
X342480Y523622D02*
Y451772D01*
X335590Y444882D01*
X328607D01*
X309776Y463713D01*
X309445Y463934D01*
X309055Y464012D01*
X279950D01*
X269408Y474553D01*
X269408Y475053D01*
X272076Y477721D01*
X307087Y477721D01*
X307477Y477798D01*
X307808Y478019D01*
X329461Y499673D01*
X329682Y500003D01*
X329760Y500394D01*
X329760Y513779D01*
X329682Y514170D01*
X329461Y514501D01*
X325130Y518831D01*
X324800Y519052D01*
X324410Y519130D01*
X311023Y519130D01*
X310633Y519052D01*
X310303Y518831D01*
X288948Y497476D01*
X141551D01*
X141161Y497399D01*
X140830Y497178D01*
X140609Y496847D01*
X140532Y496457D01*
Y495715D01*
X140299Y494249D01*
X139841Y492837D01*
X139167Y491515D01*
X138295Y490314D01*
X137245Y489264D01*
X136044Y488392D01*
X134722Y487718D01*
X133310Y487260D01*
X131844Y487028D01*
X130360D01*
X128894Y487260D01*
X127483Y487718D01*
X126160Y488392D01*
X124960Y489264D01*
X124829Y489396D01*
X124498Y489616D01*
X124108Y489694D01*
X123717Y489616D01*
X123387Y489396D01*
X115421Y481430D01*
X115200Y481099D01*
X115122Y480709D01*
Y462992D01*
X115200Y462602D01*
X115421Y462271D01*
X119358Y458334D01*
X119689Y458113D01*
X120079Y458036D01*
X127953D01*
X128343Y458113D01*
X128674Y458334D01*
X131890Y461550D01*
X132111Y461881D01*
X132188Y462271D01*
Y464535D01*
X132650Y464727D01*
X135700Y461677D01*
X136031Y461456D01*
X136421Y461378D01*
X137118D01*
X137939Y461158D01*
X138675Y460733D01*
X139276Y460132D01*
X139701Y459396D01*
X139863Y458791D01*
X139893Y458731D01*
X139906Y458665D01*
X139980Y458554D01*
X140039Y458434D01*
X140090Y458390D01*
X140127Y458334D01*
X140238Y458260D01*
X140338Y458172D01*
X140402Y458150D01*
X140458Y458113D01*
X140589Y458087D01*
X140715Y458044D01*
X140782Y458049D01*
X140848Y458036D01*
X145629D01*
Y434090D01*
X140800D01*
X140550Y434523D01*
X140652Y434699D01*
X140941Y435779D01*
Y436898D01*
X140652Y437978D01*
X140092Y438947D01*
X139301Y439738D01*
X138333Y440297D01*
X137252Y440587D01*
X136134D01*
X135053Y440297D01*
X134085Y439738D01*
X133294Y438947D01*
X132734Y437978D01*
X132445Y436898D01*
Y435779D01*
X132720Y434754D01*
X132642Y434563D01*
X132429Y434253D01*
X132137Y434225D01*
X128634Y437729D01*
X128303Y437950D01*
X128262Y438050D01*
X128207Y438479D01*
X128911Y439183D01*
X129470Y440152D01*
X129760Y441232D01*
Y442351D01*
X129470Y443431D01*
X128911Y444400D01*
X128120Y445191D01*
X127152Y445750D01*
X126071Y446039D01*
X124953D01*
X123872Y445750D01*
X122904Y445191D01*
X122113Y444400D01*
X121553Y443431D01*
X121264Y442351D01*
Y441232D01*
X121553Y440152D01*
X122113Y439183D01*
X122768Y438527D01*
X122577Y438027D01*
X122007D01*
X121617Y437950D01*
X121286Y437729D01*
X119318Y435760D01*
X119097Y435429D01*
X119019Y435039D01*
Y421260D01*
X119097Y420870D01*
X119318Y420539D01*
X132249Y407608D01*
X132316Y407563D01*
X132370Y407504D01*
X132479Y407454D01*
X132579Y407387D01*
X132658Y407371D01*
X132731Y407338D01*
X134025Y407027D01*
X135205Y406538D01*
X135595Y406461D01*
X145629D01*
Y392935D01*
X138521Y385827D01*
X121457D01*
X100536Y406748D01*
Y498032D01*
X132032Y529528D01*
X336574D01*
X342480Y523622D01*
D02*
G37*
G36*
X267717Y474803D02*
X279528Y462992D01*
X309055D01*
X328740Y443307D01*
Y427559D01*
X324803Y423622D01*
X316929D01*
X295275Y445276D01*
X277559Y445276D01*
X263779Y459055D01*
X140848D01*
X140652Y459789D01*
X140092Y460758D01*
X139301Y461549D01*
X138333Y462108D01*
X137252Y462398D01*
X136421D01*
X131890Y466929D01*
X131890Y470866D01*
X135827Y474803D01*
X267717Y474803D01*
D02*
G37*
G36*
X360669Y413560D02*
X287852D01*
X287392Y414020D01*
X287509Y414910D01*
X287389Y415824D01*
X287036Y416675D01*
X286475Y417406D01*
X285744Y417967D01*
X284893Y418320D01*
X283979Y418440D01*
X283065Y418320D01*
X282214Y417967D01*
X281483Y417406D01*
X280922Y416675D01*
X280569Y415824D01*
X280449Y414910D01*
X280569Y413996D01*
X280922Y413145D01*
X281483Y412414D01*
X282214Y411853D01*
X283065Y411500D01*
X283979Y411380D01*
X284869Y411497D01*
X285840Y410526D01*
X284869Y409555D01*
X283979Y409672D01*
X283065Y409552D01*
X282214Y409199D01*
X281483Y408638D01*
X280922Y407907D01*
X280569Y407056D01*
X280449Y406142D01*
X280569Y405229D01*
X280922Y404377D01*
X281483Y403646D01*
X282214Y403085D01*
X283065Y402732D01*
X283979Y402612D01*
X284893Y402732D01*
X285744Y403085D01*
X286475Y403646D01*
X287036Y404377D01*
X287389Y405229D01*
X287509Y406142D01*
X287392Y407032D01*
X287852Y407492D01*
X360669D01*
X360669Y392532D01*
X275345D01*
X267392Y400486D01*
Y410573D01*
X267392Y410573D01*
X267256Y411256D01*
X266869Y411835D01*
X265062Y413642D01*
X265203Y413983D01*
X265323Y414896D01*
X265203Y415810D01*
X264851Y416661D01*
X264290Y417392D01*
X263558Y417953D01*
X262707Y418306D01*
X261793Y418427D01*
X260880Y418306D01*
X260028Y417953D01*
X259297Y417392D01*
X258736Y416661D01*
X258383Y415810D01*
X258263Y414896D01*
X258383Y413983D01*
X258736Y413131D01*
X259297Y412400D01*
X260028Y411839D01*
X260880Y411486D01*
X261793Y411366D01*
X262234Y411424D01*
X263824Y409834D01*
Y399746D01*
X263959Y399064D01*
X264346Y398485D01*
X273345Y389486D01*
X273923Y389100D01*
X274606Y388964D01*
X360669D01*
Y387119D01*
X318590D01*
X318346Y387363D01*
Y387610D01*
X295050D01*
X294559Y387119D01*
X270916D01*
X260306Y397730D01*
Y402521D01*
X260353Y402558D01*
X260914Y403289D01*
X261266Y404140D01*
X261386Y405054D01*
X261266Y405967D01*
X260914Y406819D01*
X260353Y407550D01*
X259621Y408111D01*
X258770Y408464D01*
X257856Y408584D01*
X256943Y408464D01*
X256091Y408111D01*
X255360Y407550D01*
X254799Y406819D01*
X254446Y405967D01*
X254326Y405054D01*
X254446Y404140D01*
X254799Y403289D01*
X255360Y402558D01*
X256091Y401997D01*
X256737Y401729D01*
Y396991D01*
X256873Y396308D01*
X257260Y395729D01*
X268916Y384073D01*
X268916Y384073D01*
X269494Y383686D01*
X270177Y383550D01*
X290337D01*
X290529Y383088D01*
X275551Y368110D01*
X184999D01*
X175157Y377953D01*
Y444882D01*
X184999Y454724D01*
X261771D01*
X295050Y421445D01*
X295606Y420890D01*
X329354D01*
X346889Y438424D01*
Y525158D01*
X320160Y551888D01*
X320351Y552350D01*
X360669D01*
X360669Y413560D01*
D02*
G37*
G36*
X131850Y433071D02*
X133973D01*
X134551Y432628D01*
X135584Y432200D01*
X136693Y432054D01*
X137802Y432200D01*
X138835Y432628D01*
X139412Y433071D01*
X149566D01*
X151535Y435039D01*
X165314D01*
X171260Y429094D01*
Y415394D01*
X163346Y407480D01*
X135595D01*
X134341Y408000D01*
X132970Y408329D01*
X120039Y421260D01*
Y435039D01*
X122007Y437008D01*
X127913Y437008D01*
X131850Y433071D01*
D02*
G37*
G36*
X371246Y388998D02*
X371049Y389188D01*
X370848Y389358D01*
X370645Y389508D01*
X370440Y389638D01*
X370231Y389748D01*
X370020Y389838D01*
X369806Y389908D01*
X369589Y389958D01*
X369369Y389988D01*
X369147Y389998D01*
Y391498D01*
X369369Y391508D01*
X369589Y391538D01*
X369806Y391588D01*
X370020Y391658D01*
X370231Y391748D01*
X370440Y391858D01*
X370645Y391988D01*
X370848Y392138D01*
X371049Y392308D01*
X371246Y392498D01*
Y388998D01*
D02*
G37*
G36*
X364610Y383585D02*
X364412Y383775D01*
X364212Y383945D01*
X364009Y384095D01*
X363804Y384225D01*
X363595Y384335D01*
X363384Y384425D01*
X363170Y384495D01*
X362953Y384545D01*
X362733Y384575D01*
X362510Y384585D01*
Y386085D01*
X362733Y386095D01*
X362953Y386125D01*
X363170Y386175D01*
X363384Y386245D01*
X363595Y386335D01*
X363804Y386445D01*
X364009Y386575D01*
X364212Y386725D01*
X364412Y386895D01*
X364610Y387085D01*
Y383585D01*
D02*
G37*
G36*
X324606Y349606D02*
X328740Y345472D01*
X328740Y331890D01*
X307087Y310236D01*
X271654Y310236D01*
X267716Y306299D01*
X133858D01*
X131169Y303610D01*
Y293767D01*
X127953Y290551D01*
X120079D01*
X116142Y294488D01*
Y312205D01*
X124108Y320171D01*
X124295Y319983D01*
X125626Y319016D01*
X127091Y318269D01*
X128656Y317761D01*
X130280Y317504D01*
X131925D01*
X133549Y317761D01*
X135113Y318269D01*
X136579Y319016D01*
X137909Y319983D01*
X139072Y321146D01*
X140039Y322476D01*
X140786Y323942D01*
X141294Y325506D01*
X141551Y327130D01*
Y327953D01*
X289370D01*
X303150Y341732D01*
X311024Y349606D01*
X324606Y349606D01*
D02*
G37*
G36*
X342480Y355118D02*
Y283268D01*
X335590Y276378D01*
X328607D01*
X309776Y295209D01*
X309445Y295430D01*
X309055Y295508D01*
X279950D01*
X269158Y306299D01*
X272076Y309217D01*
X307087Y309217D01*
X307477Y309294D01*
X307808Y309515D01*
X329461Y331169D01*
X329682Y331500D01*
X329760Y331890D01*
X329760Y345472D01*
X329682Y345863D01*
X329461Y346193D01*
X325327Y350327D01*
X324996Y350548D01*
X324606Y350626D01*
X311024Y350626D01*
X310633Y350548D01*
X310303Y350327D01*
X302429Y342453D01*
X288948Y328972D01*
X141551D01*
X141161Y328895D01*
X140830Y328674D01*
X140609Y328343D01*
X140532Y327953D01*
Y327211D01*
X140299Y325745D01*
X139841Y324333D01*
X139167Y323011D01*
X138295Y321810D01*
X137245Y320761D01*
X136044Y319888D01*
X134722Y319214D01*
X133310Y318756D01*
X131844Y318524D01*
X130360D01*
X128894Y318756D01*
X127483Y319214D01*
X126160Y319888D01*
X124960Y320760D01*
X124829Y320892D01*
X124498Y321113D01*
X124108Y321190D01*
X124108D01*
X123717Y321113D01*
X123387Y320892D01*
X115421Y312926D01*
X115200Y312595D01*
X115122Y312205D01*
Y294488D01*
X115200Y294098D01*
X115421Y293767D01*
X119358Y289830D01*
X119689Y289609D01*
X120079Y289532D01*
X127953D01*
X128343Y289609D01*
X128674Y289830D01*
X131890Y293046D01*
X132111Y293377D01*
X132188Y293767D01*
Y296031D01*
X132650Y296223D01*
X135700Y293173D01*
X136031Y292952D01*
X136421Y292874D01*
X137118D01*
X137939Y292654D01*
X138675Y292229D01*
X139276Y291628D01*
X139701Y290892D01*
X139863Y290287D01*
X139893Y290227D01*
X139906Y290161D01*
X139980Y290050D01*
X140039Y289931D01*
X140090Y289886D01*
X140127Y289830D01*
X140238Y289756D01*
X140338Y289668D01*
X140402Y289647D01*
X140458Y289609D01*
X140589Y289583D01*
X140715Y289540D01*
X140782Y289545D01*
X140848Y289532D01*
X145629D01*
Y265586D01*
X140800D01*
X140550Y266020D01*
X140652Y266195D01*
X140941Y267275D01*
Y268394D01*
X140652Y269474D01*
X140092Y270443D01*
X139301Y271234D01*
X138333Y271793D01*
X137252Y272083D01*
X136134D01*
X135053Y271793D01*
X134085Y271234D01*
X133294Y270443D01*
X132734Y269474D01*
X132445Y268394D01*
Y267275D01*
X132720Y266250D01*
X132642Y266059D01*
X132429Y265749D01*
X132137Y265721D01*
X128634Y269225D01*
X128303Y269446D01*
X128262Y269546D01*
X128207Y269975D01*
X128911Y270679D01*
X129470Y271648D01*
X129760Y272728D01*
Y273847D01*
X129470Y274927D01*
X128911Y275896D01*
X128120Y276687D01*
X127152Y277246D01*
X126071Y277535D01*
X124953D01*
X123872Y277246D01*
X122904Y276687D01*
X122113Y275896D01*
X121553Y274927D01*
X121264Y273847D01*
Y272728D01*
X121553Y271648D01*
X122113Y270679D01*
X122768Y270023D01*
X122577Y269524D01*
X122007D01*
X121617Y269446D01*
X121286Y269225D01*
X119318Y267256D01*
X119097Y266926D01*
X119019Y266535D01*
Y252756D01*
X119097Y252366D01*
X119318Y252035D01*
X132249Y239104D01*
X132316Y239059D01*
X132370Y239000D01*
X132479Y238950D01*
X132579Y238883D01*
X132658Y238867D01*
X132731Y238834D01*
X134025Y238523D01*
X135205Y238034D01*
X135595Y237957D01*
X145629D01*
Y224431D01*
X138521Y217323D01*
X121457D01*
X100536Y238244D01*
Y329528D01*
X132032Y361024D01*
X336574D01*
X342480Y355118D01*
D02*
G37*
G36*
X492558Y298276D02*
Y268126D01*
X491291D01*
X489652Y267800D01*
X488109Y267161D01*
X486720Y266233D01*
X485539Y265052D01*
X484611Y263663D01*
X483972Y262119D01*
X483704Y260774D01*
X483194D01*
X483018Y261660D01*
X482498Y262917D01*
X481742Y264048D01*
X480780Y265009D01*
X479649Y265765D01*
X478392Y266286D01*
X477058Y266551D01*
X475698D01*
X474364Y266286D01*
X473107Y265765D01*
X471976Y265009D01*
X471014Y264048D01*
X470258Y262917D01*
X469738Y261660D01*
X469472Y260326D01*
Y258965D01*
X469738Y257631D01*
X470258Y256375D01*
X471014Y255244D01*
X471976Y254282D01*
X473107Y253526D01*
X474364Y253006D01*
X475698Y252740D01*
X477058D01*
X478392Y253006D01*
X479649Y253526D01*
X480780Y254282D01*
X481742Y255244D01*
X482498Y256375D01*
X483018Y257631D01*
X483194Y258517D01*
X483704D01*
X483972Y257172D01*
X484611Y255629D01*
X485539Y254240D01*
X486720Y253059D01*
X488109Y252131D01*
X489652Y251491D01*
X491291Y251165D01*
X492558D01*
Y66425D01*
X480969Y54836D01*
X480301Y54875D01*
X479662Y55515D01*
X478561Y56150D01*
X477334Y56479D01*
X476064D01*
X474836Y56150D01*
X473736Y55515D01*
X472838Y54616D01*
X472203Y53516D01*
X471874Y52289D01*
Y51018D01*
X472203Y49791D01*
X472838Y48691D01*
X473541Y47988D01*
X473334Y47488D01*
X440983Y47488D01*
X440170Y48301D01*
X440560Y48691D01*
X441195Y49791D01*
X441524Y51018D01*
Y52289D01*
X441195Y53516D01*
X440560Y54616D01*
X439662Y55515D01*
X438561Y56150D01*
X437334Y56479D01*
X436064D01*
X435184Y56243D01*
X434684Y56615D01*
X434684Y86692D01*
X435184Y87064D01*
X436064Y86829D01*
X437334D01*
X438561Y87157D01*
X439662Y87793D01*
X440560Y88691D01*
X441195Y89791D01*
X441524Y91018D01*
Y92289D01*
X441195Y93516D01*
X440560Y94616D01*
X439662Y95515D01*
X438561Y96150D01*
X437334Y96478D01*
X436064D01*
X435184Y96243D01*
X434684Y96615D01*
X434684Y106676D01*
X439342Y111334D01*
X463752Y135744D01*
X463973Y136074D01*
X464050Y136465D01*
Y170312D01*
X463973Y170702D01*
X463752Y171033D01*
X460048Y174737D01*
X459717Y174958D01*
X459327Y175035D01*
X446850D01*
Y283276D01*
X466180Y302606D01*
X488228D01*
X492558Y298276D01*
D02*
G37*
G36*
X279528Y294488D02*
X309055D01*
X328740Y274803D01*
Y259055D01*
X324803Y255118D01*
X316929D01*
X295275Y276772D01*
X277559Y276772D01*
X263779Y290551D01*
X140848D01*
X140652Y291285D01*
X140092Y292254D01*
X139301Y293045D01*
X138333Y293604D01*
X137252Y293894D01*
X136421D01*
X132188Y298127D01*
Y302661D01*
X134807Y305280D01*
X267716D01*
X268107Y305357D01*
X268437Y305578D01*
X268437Y305578D01*
X279528Y294488D01*
D02*
G37*
G36*
X360668Y244071D02*
X350370D01*
X350278Y244132D01*
X349596Y244268D01*
X288524D01*
X288105Y244738D01*
X288176Y245276D01*
X288056Y246189D01*
X287703Y247041D01*
X287142Y247772D01*
X286411Y248333D01*
X285559Y248686D01*
X284646Y248806D01*
X283732Y248686D01*
X282881Y248333D01*
X282149Y247772D01*
X281588Y247041D01*
X281236Y246189D01*
X281116Y245276D01*
X281236Y244362D01*
X281588Y243511D01*
X282149Y242779D01*
X282881Y242218D01*
X283732Y241866D01*
X284646Y241745D01*
X285535Y241863D01*
X286165Y241233D01*
X285535Y240604D01*
X284646Y240721D01*
X283732Y240601D01*
X282881Y240248D01*
X282149Y239687D01*
X281588Y238956D01*
X281236Y238105D01*
X281116Y237191D01*
X281236Y236277D01*
X281588Y235426D01*
X282149Y234695D01*
X282881Y234134D01*
X283732Y233781D01*
X284646Y233661D01*
X285559Y233781D01*
X286411Y234134D01*
X287142Y234695D01*
X287703Y235426D01*
X288056Y236277D01*
X288176Y237191D01*
X288105Y237729D01*
X288524Y238199D01*
X347983D01*
X348074Y238138D01*
X348757Y238002D01*
X348757Y238002D01*
X360668D01*
X360668Y226194D01*
X270250D01*
X266548Y229895D01*
Y241917D01*
X266412Y242599D01*
X266025Y243178D01*
X265780Y243424D01*
Y244231D01*
X265872Y244929D01*
X265780Y245628D01*
Y246228D01*
X265644Y246911D01*
X265258Y247490D01*
X265257Y247490D01*
X264588Y248159D01*
X264009Y248546D01*
X263326Y248682D01*
X262643Y248546D01*
X262485Y248441D01*
X262342Y248459D01*
X261428Y248339D01*
X260577Y247986D01*
X259846Y247425D01*
X259285Y246694D01*
X258932Y245843D01*
X258812Y244929D01*
X258932Y244016D01*
X259285Y243164D01*
X259846Y242433D01*
X260577Y241872D01*
X261428Y241519D01*
X262342Y241399D01*
X262584Y241431D01*
X262980Y241066D01*
Y229156D01*
X263115Y228473D01*
X263502Y227894D01*
X268249Y223148D01*
X268828Y222761D01*
X269511Y222625D01*
X360668D01*
X360668Y220288D01*
X267945D01*
X260189Y228044D01*
Y233028D01*
X260901Y233575D01*
X261462Y234306D01*
X261815Y235157D01*
X261935Y236071D01*
X261815Y236984D01*
X261462Y237836D01*
X260901Y238567D01*
X260170Y239128D01*
X259318Y239481D01*
X258405Y239601D01*
X257491Y239481D01*
X256640Y239128D01*
X255909Y238567D01*
X255348Y237836D01*
X254995Y236984D01*
X254875Y236071D01*
X254995Y235157D01*
X255348Y234306D01*
X255909Y233575D01*
X256621Y233028D01*
Y227305D01*
X256756Y226622D01*
X257143Y226043D01*
X265944Y217242D01*
X266523Y216856D01*
X267206Y216720D01*
X267206Y216720D01*
X292011D01*
X292202Y216258D01*
X275551Y199606D01*
X184999D01*
X175157Y209449D01*
Y276378D01*
X184999Y286221D01*
X261771D01*
X297007Y250984D01*
X329724D01*
X346889Y268149D01*
Y358820D01*
X322620Y383088D01*
X322812Y383550D01*
X360669D01*
X360668Y244071D01*
D02*
G37*
G36*
X131850Y264567D02*
X133973D01*
X134551Y264124D01*
X135584Y263696D01*
X136693Y263550D01*
X137802Y263696D01*
X138835Y264124D01*
X139412Y264567D01*
X149566D01*
X151535Y266535D01*
X165314D01*
X171260Y260590D01*
Y246890D01*
X163346Y238976D01*
X135595D01*
X134341Y239496D01*
X132970Y239825D01*
X120039Y252756D01*
Y266535D01*
X122007Y268504D01*
X127913Y268504D01*
X131850Y264567D01*
D02*
G37*
G36*
X372618Y224305D02*
X372582Y224321D01*
X372537Y224324D01*
X372486Y224313D01*
X372427Y224290D01*
X372361Y224254D01*
X372287Y224205D01*
X372206Y224143D01*
X372021Y223980D01*
X371917Y223879D01*
X370857Y224940D01*
X370999Y225084D01*
X371476Y225623D01*
X371524Y225695D01*
X371556Y225755D01*
X371573Y225803D01*
X371575Y225838D01*
X372618Y224305D01*
D02*
G37*
G36*
X324803Y181102D02*
X328740Y177165D01*
X328740Y163386D01*
X307087Y141732D01*
X271654Y141732D01*
X267716Y137795D01*
X133858D01*
X131169Y135106D01*
Y125263D01*
X127953Y122047D01*
X120079D01*
X116142Y125984D01*
Y143701D01*
X124108Y151667D01*
X124295Y151479D01*
X125626Y150512D01*
X127091Y149766D01*
X128656Y149257D01*
X130280Y149000D01*
X131925D01*
X133549Y149257D01*
X135113Y149766D01*
X136579Y150512D01*
X137909Y151479D01*
X139072Y152642D01*
X140039Y153972D01*
X140786Y155438D01*
X141294Y157002D01*
X141551Y158626D01*
Y159449D01*
X289370D01*
X311023Y181102D01*
X324803Y181102D01*
D02*
G37*
G36*
X342480Y186614D02*
Y114764D01*
X335590Y107874D01*
X328607D01*
X309776Y126705D01*
X309445Y126926D01*
X309055Y127004D01*
X279950D01*
X269158Y137795D01*
X272076Y140713D01*
X307087Y140713D01*
X307477Y140790D01*
X307808Y141011D01*
X329461Y162665D01*
X329682Y162996D01*
X329760Y163386D01*
X329760Y177165D01*
X329682Y177556D01*
X329461Y177886D01*
X325524Y181823D01*
X325193Y182044D01*
X324803Y182122D01*
X311023Y182122D01*
X310633Y182044D01*
X310303Y181823D01*
X288948Y160468D01*
X141551D01*
X141161Y160391D01*
X140830Y160170D01*
X140609Y159839D01*
X140532Y159449D01*
Y158707D01*
X140299Y157241D01*
X139841Y155829D01*
X139167Y154507D01*
X138295Y153306D01*
X137245Y152257D01*
X136044Y151384D01*
X134722Y150710D01*
X133310Y150252D01*
X131844Y150020D01*
X130360D01*
X128894Y150252D01*
X127483Y150710D01*
X126160Y151384D01*
X124960Y152257D01*
X124829Y152388D01*
X124498Y152609D01*
X124108Y152686D01*
X124108D01*
X123717Y152609D01*
X123387Y152388D01*
X115421Y144422D01*
X115200Y144091D01*
X115122Y143701D01*
Y125984D01*
X115200Y125594D01*
X115421Y125263D01*
X119358Y121326D01*
X119689Y121105D01*
X120079Y121028D01*
X127953D01*
X128343Y121105D01*
X128674Y121326D01*
X131890Y124542D01*
X132111Y124873D01*
X132188Y125263D01*
Y127527D01*
X132650Y127719D01*
X135700Y124669D01*
X136031Y124448D01*
X136421Y124370D01*
X137118D01*
X137939Y124150D01*
X138675Y123725D01*
X139276Y123124D01*
X139701Y122388D01*
X139863Y121783D01*
X139893Y121723D01*
X139906Y121657D01*
X139980Y121546D01*
X140039Y121426D01*
X140090Y121382D01*
X140127Y121326D01*
X140238Y121252D01*
X140338Y121164D01*
X140402Y121143D01*
X140458Y121105D01*
X140589Y121079D01*
X140715Y121036D01*
X140782Y121041D01*
X140848Y121028D01*
X145629D01*
Y97083D01*
X140800D01*
X140550Y97516D01*
X140652Y97691D01*
X140941Y98772D01*
Y99890D01*
X140652Y100970D01*
X140092Y101939D01*
X139301Y102730D01*
X138333Y103289D01*
X137252Y103579D01*
X136134D01*
X135053Y103289D01*
X134085Y102730D01*
X133294Y101939D01*
X132734Y100970D01*
X132445Y99890D01*
Y98772D01*
X132720Y97746D01*
X132642Y97555D01*
X132429Y97245D01*
X132137Y97217D01*
X128634Y100721D01*
X128303Y100942D01*
X128262Y101042D01*
X128207Y101471D01*
X128911Y102175D01*
X129470Y103144D01*
X129760Y104224D01*
Y105343D01*
X129470Y106423D01*
X128911Y107392D01*
X128120Y108183D01*
X127152Y108742D01*
X126071Y109031D01*
X124953D01*
X123872Y108742D01*
X122904Y108183D01*
X122113Y107392D01*
X121553Y106423D01*
X121264Y105343D01*
Y104224D01*
X121553Y103144D01*
X122113Y102175D01*
X122768Y101520D01*
X122577Y101020D01*
X122007D01*
X121617Y100942D01*
X121286Y100721D01*
X119318Y98752D01*
X119097Y98422D01*
X119019Y98032D01*
Y84252D01*
X119097Y83862D01*
X119318Y83531D01*
X132249Y70600D01*
X132316Y70555D01*
X132370Y70496D01*
X132479Y70446D01*
X132579Y70379D01*
X132658Y70363D01*
X132731Y70330D01*
X134025Y70019D01*
X135205Y69530D01*
X135595Y69453D01*
X145629D01*
Y55927D01*
X138521Y48819D01*
X121457D01*
X100536Y69740D01*
Y161024D01*
X132032Y192520D01*
X336574D01*
X342480Y186614D01*
D02*
G37*
G36*
X360668Y116940D02*
X333139Y89411D01*
X332677Y89603D01*
X332677Y100206D01*
X346889Y114417D01*
X346889Y189220D01*
X319852Y216258D01*
X320043Y216720D01*
X360668D01*
X360668Y116940D01*
D02*
G37*
G36*
X279528Y125984D02*
X309055D01*
X328740Y106299D01*
Y90551D01*
X324803Y86614D01*
X316929D01*
X295275Y108268D01*
X277559Y108268D01*
X263779Y122047D01*
X140848D01*
X140652Y122781D01*
X140092Y123750D01*
X139301Y124541D01*
X138333Y125100D01*
X137252Y125390D01*
X136421D01*
X132188Y129623D01*
Y134157D01*
X134807Y136776D01*
X267716D01*
X268107Y136853D01*
X268437Y137074D01*
X268437Y137074D01*
X279528Y125984D01*
D02*
G37*
G36*
X131850Y96063D02*
X133973D01*
X134551Y95620D01*
X135584Y95192D01*
X136693Y95046D01*
X137802Y95192D01*
X138835Y95620D01*
X139412Y96063D01*
X149566D01*
X151535Y98032D01*
X165314D01*
X171260Y92086D01*
Y78386D01*
X163346Y70472D01*
X135595D01*
X134341Y70992D01*
X132970Y71321D01*
X120039Y84252D01*
Y98032D01*
X122007Y100000D01*
X127913Y100000D01*
X131850Y96063D01*
D02*
G37*
G36*
X374029Y56799D02*
X373756Y56794D01*
X373494Y56773D01*
X373244Y56735D01*
X373007Y56682D01*
X372781Y56612D01*
X372568Y56526D01*
X372367Y56424D01*
X372179Y56306D01*
X372002Y56172D01*
X371838Y56022D01*
X370777Y57082D01*
X370927Y57247D01*
X371061Y57424D01*
X371180Y57612D01*
X371281Y57813D01*
X371367Y58026D01*
X371437Y58251D01*
X371491Y58489D01*
X371528Y58738D01*
X371549Y59000D01*
X371555Y59274D01*
X374029Y56799D01*
D02*
G37*
G36*
X297795Y81693D02*
X324767Y81693D01*
X324959Y81231D01*
X322460Y78732D01*
X296767D01*
X296767Y78732D01*
X296084Y78596D01*
X295505Y78209D01*
X295505Y78209D01*
X293657Y76361D01*
X288367D01*
X287862Y76866D01*
X287979Y77756D01*
X287859Y78670D01*
X287506Y79521D01*
X286945Y80252D01*
X286214Y80813D01*
X285363Y81166D01*
X284449Y81286D01*
X283535Y81166D01*
X282684Y80813D01*
X281953Y80252D01*
X281392Y79521D01*
X281039Y78670D01*
X280919Y77756D01*
X281039Y76842D01*
X281392Y75991D01*
X281953Y75260D01*
X282684Y74699D01*
X283535Y74346D01*
X284449Y74226D01*
X285338Y74343D01*
X286355Y73327D01*
X285338Y72311D01*
X284449Y72428D01*
X283535Y72308D01*
X282684Y71955D01*
X281953Y71394D01*
X281392Y70663D01*
X281039Y69811D01*
X280919Y68898D01*
X281039Y67984D01*
X281392Y67133D01*
X281953Y66401D01*
X282684Y65840D01*
X283535Y65488D01*
X284449Y65367D01*
X285363Y65488D01*
X286214Y65840D01*
X286945Y66401D01*
X287506Y67133D01*
X287859Y67984D01*
X287979Y68898D01*
X287862Y69787D01*
X288367Y70293D01*
X295431D01*
X296114Y70428D01*
X296693Y70815D01*
X298541Y72663D01*
X324234D01*
X324917Y72799D01*
X325496Y73186D01*
X360206Y107896D01*
X360668Y107704D01*
X360668Y86857D01*
X350826Y77016D01*
Y54095D01*
X276418D01*
X265996Y64517D01*
Y75674D01*
X265860Y76357D01*
X265474Y76936D01*
X265474Y76936D01*
X264692Y77718D01*
X264789Y78455D01*
X264669Y79369D01*
X264316Y80220D01*
X263755Y80951D01*
X263024Y81512D01*
X262173Y81865D01*
X261259Y81985D01*
X260346Y81865D01*
X259494Y81512D01*
X258763Y80951D01*
X258202Y80220D01*
X257849Y79369D01*
X257729Y78455D01*
X257849Y77541D01*
X258202Y76690D01*
X258763Y75959D01*
X259494Y75398D01*
X260346Y75045D01*
X261259Y74925D01*
X261962Y75017D01*
X262375Y74699D01*
X262428Y74610D01*
Y63778D01*
X262563Y63095D01*
X262950Y62516D01*
X274417Y51049D01*
X274996Y50663D01*
X275679Y50527D01*
X275679Y50527D01*
X352789D01*
X356277Y47039D01*
X356070Y46539D01*
X342952D01*
X342562Y46462D01*
X342231Y46241D01*
X333985Y37994D01*
X328151Y43829D01*
X327572Y44215D01*
X326889Y44351D01*
X275384D01*
X259043Y60692D01*
Y65115D01*
X259755Y65661D01*
X260316Y66392D01*
X260669Y67244D01*
X260789Y68158D01*
X260669Y69071D01*
X260316Y69923D01*
X259755Y70654D01*
X259024Y71215D01*
X258173Y71567D01*
X257259Y71688D01*
X256346Y71567D01*
X255494Y71215D01*
X254763Y70654D01*
X254202Y69923D01*
X253849Y69071D01*
X253729Y68158D01*
X253849Y67244D01*
X254202Y66392D01*
X254763Y65661D01*
X255475Y65115D01*
Y59953D01*
X255611Y59270D01*
X255997Y58691D01*
X273383Y41305D01*
X273383Y41305D01*
X273962Y40918D01*
X274645Y40783D01*
X274645Y40783D01*
X326150D01*
X333074Y33858D01*
Y24850D01*
X333152Y24460D01*
X333373Y24129D01*
X336227Y21275D01*
X336558Y21054D01*
X336948Y20977D01*
X343913D01*
X344303Y21054D01*
X344634Y21275D01*
X346626Y23267D01*
X346847Y23598D01*
X346924Y23988D01*
Y30334D01*
X351741Y35150D01*
X356732D01*
Y24146D01*
X349121Y16535D01*
X199566Y16535D01*
X175157Y40945D01*
Y107874D01*
X184999Y117717D01*
X261771D01*
X297795Y81693D01*
D02*
G37*
G36*
X369527Y38630D02*
X367066Y36169D01*
X351318D01*
X345905Y30756D01*
Y23988D01*
X343913Y21996D01*
X336948D01*
X334094Y24850D01*
Y36661D01*
X342952Y45520D01*
X359684D01*
X362637Y48472D01*
Y49457D01*
X369527D01*
Y38630D01*
D02*
G37*
G36*
X463031Y170312D02*
Y136465D01*
X438621Y112055D01*
X425236Y98669D01*
Y34890D01*
X412243Y21898D01*
X380986Y21898D01*
X378385Y24499D01*
Y120717D01*
X390196Y132527D01*
X403188D01*
X413031Y142370D01*
Y158905D01*
X428141Y174016D01*
X459327D01*
X463031Y170312D01*
D02*
G37*
%LPC*%
G36*
X126071Y625449D02*
X124953D01*
X123872Y625159D01*
X122904Y624600D01*
X122113Y623809D01*
X121553Y622840D01*
X121264Y621760D01*
Y620642D01*
X121553Y619561D01*
X122113Y618592D01*
X122904Y617802D01*
X123872Y617242D01*
X124953Y616953D01*
X126071D01*
X127152Y617242D01*
X128120Y617802D01*
X128911Y618592D01*
X129470Y619561D01*
X129760Y620642D01*
Y621760D01*
X129470Y622840D01*
X128911Y623809D01*
X128120Y624600D01*
X127152Y625159D01*
X126071Y625449D01*
D02*
G37*
G36*
X137252Y619996D02*
X136134D01*
X135053Y619707D01*
X134085Y619147D01*
X133294Y618356D01*
X132734Y617388D01*
X132445Y616307D01*
Y615189D01*
X132734Y614108D01*
X133294Y613140D01*
X134085Y612349D01*
X135053Y611790D01*
X136134Y611500D01*
X137252D01*
X138333Y611790D01*
X139301Y612349D01*
X140092Y613140D01*
X140652Y614108D01*
X140941Y615189D01*
Y616307D01*
X140652Y617388D01*
X140092Y618356D01*
X139301Y619147D01*
X138333Y619707D01*
X137252Y619996D01*
D02*
G37*
G36*
X138317Y598208D02*
X135069D01*
X134384Y598117D01*
X133746Y597853D01*
X133197Y597433D01*
X132777Y596884D01*
X132512Y596246D01*
X132422Y595561D01*
Y592313D01*
X132512Y591628D01*
X132777Y590990D01*
X133197Y590442D01*
X133746Y590021D01*
X134384Y589756D01*
X135069Y589666D01*
X138317D01*
X139002Y589756D01*
X139640Y590021D01*
X140188Y590442D01*
X140609Y590990D01*
X140873Y591628D01*
X140964Y592313D01*
Y595561D01*
X140873Y596246D01*
X140609Y596884D01*
X140188Y597433D01*
X139640Y597853D01*
X139002Y598117D01*
X138317Y598208D01*
D02*
G37*
G36*
X126071Y456945D02*
X124953D01*
X123872Y456655D01*
X122904Y456096D01*
X122113Y455305D01*
X121553Y454337D01*
X121264Y453256D01*
Y452138D01*
X121553Y451057D01*
X122113Y450089D01*
X122904Y449298D01*
X123872Y448738D01*
X124953Y448449D01*
X126071D01*
X127152Y448738D01*
X128120Y449298D01*
X128911Y450089D01*
X129470Y451057D01*
X129760Y452138D01*
Y453256D01*
X129470Y454337D01*
X128911Y455305D01*
X128120Y456096D01*
X127152Y456655D01*
X126071Y456945D01*
D02*
G37*
G36*
X137252Y451492D02*
X136134D01*
X135053Y451203D01*
X134085Y450643D01*
X133294Y449852D01*
X132734Y448884D01*
X132445Y447803D01*
Y446685D01*
X132734Y445604D01*
X133294Y444636D01*
X134085Y443845D01*
X135053Y443286D01*
X136134Y442996D01*
X137252D01*
X138333Y443286D01*
X139301Y443845D01*
X140092Y444636D01*
X140652Y445604D01*
X140941Y446685D01*
Y447803D01*
X140652Y448884D01*
X140092Y449852D01*
X139301Y450643D01*
X138333Y451203D01*
X137252Y451492D01*
D02*
G37*
G36*
X138317Y429704D02*
X135069D01*
X134384Y429614D01*
X133746Y429349D01*
X133197Y428929D01*
X132777Y428380D01*
X132512Y427742D01*
X132422Y427057D01*
Y423809D01*
X132512Y423124D01*
X132777Y422486D01*
X133197Y421938D01*
X133746Y421517D01*
X134384Y421253D01*
X135069Y421162D01*
X138317D01*
X139002Y421253D01*
X139640Y421517D01*
X140188Y421938D01*
X140609Y422486D01*
X140873Y423124D01*
X140964Y423809D01*
Y427057D01*
X140873Y427742D01*
X140609Y428380D01*
X140188Y428929D01*
X139640Y429349D01*
X139002Y429614D01*
X138317Y429704D01*
D02*
G37*
G36*
X126071Y288441D02*
X124953D01*
X123872Y288152D01*
X122904Y287592D01*
X122113Y286801D01*
X121553Y285833D01*
X121264Y284752D01*
Y283634D01*
X121553Y282553D01*
X122113Y281585D01*
X122904Y280794D01*
X123872Y280234D01*
X124953Y279945D01*
X126071D01*
X127152Y280234D01*
X128120Y280794D01*
X128911Y281585D01*
X129470Y282553D01*
X129760Y283634D01*
Y284752D01*
X129470Y285833D01*
X128911Y286801D01*
X128120Y287592D01*
X127152Y288152D01*
X126071Y288441D01*
D02*
G37*
G36*
X137252Y282988D02*
X136134D01*
X135053Y282699D01*
X134085Y282139D01*
X133294Y281348D01*
X132734Y280380D01*
X132445Y279299D01*
Y278181D01*
X132734Y277100D01*
X133294Y276132D01*
X134085Y275341D01*
X135053Y274782D01*
X136134Y274492D01*
X137252D01*
X138333Y274782D01*
X139301Y275341D01*
X140092Y276132D01*
X140652Y277100D01*
X140941Y278181D01*
Y279299D01*
X140652Y280380D01*
X140092Y281348D01*
X139301Y282139D01*
X138333Y282699D01*
X137252Y282988D01*
D02*
G37*
G36*
X470015Y300677D02*
X468819D01*
X467664Y300367D01*
X466628Y299769D01*
X465782Y298923D01*
X465184Y297887D01*
X464874Y296732D01*
Y295536D01*
X465184Y294380D01*
X465782Y293344D01*
X466628Y292498D01*
X467664Y291900D01*
X468819Y291591D01*
X470015D01*
X471171Y291900D01*
X472207Y292498D01*
X473053Y293344D01*
X473651Y294380D01*
X473961Y295536D01*
Y296732D01*
X473651Y297887D01*
X473053Y298923D01*
X472207Y299769D01*
X471171Y300367D01*
X470015Y300677D01*
D02*
G37*
G36*
X483937Y286756D02*
X482740D01*
X481585Y286446D01*
X480549Y285848D01*
X479703Y285002D01*
X479105Y283966D01*
X478795Y282811D01*
Y281614D01*
X479105Y280459D01*
X479703Y279423D01*
X480549Y278577D01*
X481585Y277979D01*
X482740Y277669D01*
X483937D01*
X485092Y277979D01*
X486128Y278577D01*
X486974Y279423D01*
X487572Y280459D01*
X487882Y281614D01*
Y282811D01*
X487572Y283966D01*
X486974Y285002D01*
X486128Y285848D01*
X485092Y286446D01*
X483937Y286756D01*
D02*
G37*
G36*
X470015D02*
X468819D01*
X467664Y286446D01*
X466628Y285848D01*
X465782Y285002D01*
X465184Y283966D01*
X464874Y282811D01*
Y281614D01*
X465184Y280459D01*
X465782Y279423D01*
X466628Y278577D01*
X467664Y277979D01*
X468819Y277669D01*
X470015D01*
X471171Y277979D01*
X472207Y278577D01*
X473053Y279423D01*
X473651Y280459D01*
X473961Y281614D01*
Y282811D01*
X473651Y283966D01*
X473053Y285002D01*
X472207Y285848D01*
X471171Y286446D01*
X470015Y286756D01*
D02*
G37*
G36*
X477728Y173250D02*
X476457D01*
X475230Y172921D01*
X474130Y172286D01*
X473232Y171388D01*
X472596Y170288D01*
X472268Y169060D01*
Y167790D01*
X472596Y166563D01*
X473232Y165463D01*
X474130Y164564D01*
X475230Y163929D01*
X476457Y163600D01*
X477728D01*
X478955Y163929D01*
X480055Y164564D01*
X480954Y165463D01*
X481589Y166563D01*
X481918Y167790D01*
Y169060D01*
X481589Y170288D01*
X480954Y171388D01*
X480055Y172286D01*
X478955Y172921D01*
X477728Y173250D01*
D02*
G37*
G36*
Y133250D02*
X476457D01*
X475230Y132921D01*
X474130Y132286D01*
X473232Y131388D01*
X472596Y130288D01*
X472268Y129060D01*
Y127790D01*
X472596Y126563D01*
X473232Y125463D01*
X474130Y124564D01*
X475230Y123929D01*
X476457Y123600D01*
X477728D01*
X478955Y123929D01*
X480055Y124564D01*
X480954Y125463D01*
X481589Y126563D01*
X481918Y127790D01*
Y129060D01*
X481589Y130288D01*
X480954Y131388D01*
X480055Y132286D01*
X478955Y132921D01*
X477728Y133250D01*
D02*
G37*
G36*
X477334Y96478D02*
X476064D01*
X474836Y96150D01*
X473736Y95515D01*
X472838Y94616D01*
X472203Y93516D01*
X471874Y92289D01*
Y91018D01*
X472203Y89791D01*
X472838Y88691D01*
X473736Y87793D01*
X474836Y87157D01*
X476064Y86829D01*
X477334D01*
X478561Y87157D01*
X479662Y87793D01*
X480560Y88691D01*
X481195Y89791D01*
X481524Y91018D01*
Y92289D01*
X481195Y93516D01*
X480560Y94616D01*
X479662Y95515D01*
X478561Y96150D01*
X477334Y96478D01*
D02*
G37*
G36*
X138317Y261200D02*
X135069D01*
X134384Y261110D01*
X133746Y260845D01*
X133197Y260425D01*
X132777Y259876D01*
X132512Y259238D01*
X132422Y258553D01*
Y255305D01*
X132512Y254620D01*
X132777Y253982D01*
X133197Y253434D01*
X133746Y253013D01*
X134384Y252749D01*
X135069Y252659D01*
X138317D01*
X139002Y252749D01*
X139640Y253013D01*
X140188Y253434D01*
X140609Y253982D01*
X140873Y254620D01*
X140964Y255305D01*
Y258553D01*
X140873Y259238D01*
X140609Y259876D01*
X140188Y260425D01*
X139640Y260845D01*
X139002Y261110D01*
X138317Y261200D01*
D02*
G37*
G36*
X126071Y119937D02*
X124953D01*
X123872Y119648D01*
X122904Y119088D01*
X122113Y118297D01*
X121553Y117329D01*
X121264Y116248D01*
Y115130D01*
X121553Y114049D01*
X122113Y113081D01*
X122904Y112290D01*
X123872Y111730D01*
X124953Y111441D01*
X126071D01*
X127152Y111730D01*
X128120Y112290D01*
X128911Y113081D01*
X129470Y114049D01*
X129760Y115130D01*
Y116248D01*
X129470Y117329D01*
X128911Y118297D01*
X128120Y119088D01*
X127152Y119648D01*
X126071Y119937D01*
D02*
G37*
G36*
X137252Y114484D02*
X136134D01*
X135053Y114195D01*
X134085Y113636D01*
X133294Y112845D01*
X132734Y111876D01*
X132445Y110795D01*
Y109677D01*
X132734Y108597D01*
X133294Y107628D01*
X134085Y106837D01*
X135053Y106278D01*
X136134Y105988D01*
X137252D01*
X138333Y106278D01*
X139301Y106837D01*
X140092Y107628D01*
X140652Y108597D01*
X140941Y109677D01*
Y110795D01*
X140652Y111876D01*
X140092Y112845D01*
X139301Y113636D01*
X138333Y114195D01*
X137252Y114484D01*
D02*
G37*
G36*
X138317Y92696D02*
X135069D01*
X134384Y92606D01*
X133746Y92341D01*
X133197Y91921D01*
X132777Y91373D01*
X132512Y90734D01*
X132422Y90049D01*
Y86801D01*
X132512Y86116D01*
X132777Y85478D01*
X133197Y84930D01*
X133746Y84509D01*
X134384Y84245D01*
X135069Y84154D01*
X138317D01*
X139002Y84245D01*
X139640Y84509D01*
X140188Y84930D01*
X140609Y85478D01*
X140873Y86116D01*
X140964Y86801D01*
Y90049D01*
X140873Y90734D01*
X140609Y91373D01*
X140188Y91921D01*
X139640Y92341D01*
X139002Y92606D01*
X138317Y92696D01*
D02*
G37*
G36*
X437093Y173292D02*
X435833Y173126D01*
X434659Y172640D01*
X433651Y171866D01*
X432878Y170859D01*
X432392Y169685D01*
X432226Y168425D01*
X432392Y167166D01*
X432878Y165992D01*
X433651Y164984D01*
X434659Y164211D01*
X435833Y163724D01*
X437093Y163559D01*
X438352Y163724D01*
X439526Y164211D01*
X440534Y164984D01*
X441307Y165992D01*
X441793Y167166D01*
X441959Y168425D01*
X441793Y169685D01*
X441307Y170859D01*
X440534Y171866D01*
X439526Y172640D01*
X438352Y173126D01*
X437093Y173292D01*
D02*
G37*
G36*
Y133292D02*
X435833Y133126D01*
X434659Y132640D01*
X433651Y131866D01*
X432878Y130859D01*
X432392Y129685D01*
X432226Y128425D01*
X432392Y127166D01*
X432878Y125992D01*
X433651Y124984D01*
X434659Y124211D01*
X435833Y123724D01*
X437093Y123559D01*
X438352Y123724D01*
X439526Y124211D01*
X440534Y124984D01*
X441307Y125992D01*
X441793Y127166D01*
X441959Y128425D01*
X441793Y129685D01*
X441307Y130859D01*
X440534Y131866D01*
X439526Y132640D01*
X438352Y133126D01*
X437093Y133292D01*
D02*
G37*
G36*
X400826Y98643D02*
X399486Y98466D01*
X398237Y97949D01*
X397165Y97126D01*
X396342Y96054D01*
X395824Y94805D01*
X395648Y93465D01*
X395824Y92124D01*
X396342Y90876D01*
X397165Y89803D01*
X398237Y88980D01*
X399486Y88463D01*
X400826Y88286D01*
X402166Y88463D01*
X403415Y88980D01*
X404488Y89803D01*
X405310Y90876D01*
X405828Y92124D01*
X406004Y93465D01*
X405828Y94805D01*
X405310Y96054D01*
X404488Y97126D01*
X403415Y97949D01*
X402166Y98466D01*
X400826Y98643D01*
D02*
G37*
G36*
X391653Y31313D02*
X390744Y31194D01*
X389898Y30843D01*
X389171Y30285D01*
X388613Y29558D01*
X388262Y28712D01*
X388142Y27803D01*
X388262Y26895D01*
X388613Y26048D01*
X389171Y25321D01*
X389898Y24763D01*
X390744Y24412D01*
X391653Y24293D01*
X392561Y24412D01*
X393408Y24763D01*
X394135Y25321D01*
X394693Y26048D01*
X395044Y26895D01*
X395163Y27803D01*
X395044Y28712D01*
X394693Y29558D01*
X394135Y30285D01*
X393408Y30843D01*
X392561Y31194D01*
X391653Y31313D01*
D02*
G37*
%LPD*%
D47*
X433917Y463149D02*
X434547Y463779D01*
X433524Y458636D02*
X433917Y459029D01*
X433524Y418555D02*
Y458636D01*
X433917Y459029D02*
Y463149D01*
X445547Y470807D02*
X456919D01*
X440158Y465418D02*
X445547Y470807D01*
X436024Y417520D02*
Y455464D01*
X440158Y459597D02*
Y465418D01*
X436024Y455464D02*
X440158Y459597D01*
X422835Y407866D02*
X433524Y418555D01*
X425335Y406831D02*
X436024Y417520D01*
X452658Y420768D02*
Y459232D01*
X450158Y421803D02*
Y459232D01*
X431003Y374719D02*
Y402649D01*
X432468Y404113D01*
X433503Y401614D02*
X433503D01*
X432468Y404113D02*
X432468D01*
X450158Y459232D02*
Y462569D01*
X432468Y404113D02*
X450158Y421803D01*
X433503Y245134D02*
Y401614D01*
X433503D02*
X452658Y420768D01*
X446919Y465807D02*
X450158Y462569D01*
X453536Y460111D02*
X456223D01*
X456919Y460807D01*
X452658Y459232D02*
X453536Y460111D01*
X422808Y420339D02*
Y462310D01*
X414245Y411776D02*
X422808Y420339D01*
X415280Y409276D02*
X425308Y419304D01*
Y461275D01*
X287113Y411776D02*
X414245D01*
X287113Y409276D02*
X415280D01*
X425308Y461275D02*
X442834Y478801D01*
X422808Y462310D02*
X441798Y481301D01*
X445112D01*
X456913Y480801D02*
X456919Y480807D01*
X442834Y478801D02*
X444077D01*
X446919Y475958D01*
Y475807D02*
Y475958D01*
X445612Y480801D02*
X456913D01*
X445112Y481301D02*
X445612Y480801D01*
X444077Y492813D02*
X446919Y495656D01*
X432174Y501378D02*
X440739Y492813D01*
X439704Y490313D02*
X449458D01*
X429674Y500342D02*
X439704Y490313D01*
X449458D02*
X450720Y491575D01*
X440739Y492813D02*
X444077D01*
X450720Y491575D02*
X456152D01*
X446919Y495656D02*
Y495807D01*
X429674Y500342D02*
Y534388D01*
X456152Y491575D02*
X456919Y490807D01*
X425335Y249950D02*
Y406831D01*
X422835Y250985D02*
Y407866D01*
X414136Y242286D02*
X422835Y250985D01*
X415172Y239786D02*
X425335Y249950D01*
X283979Y406142D02*
X287113Y409276D01*
X283979Y414910D02*
X287113Y411776D01*
X432174Y501378D02*
Y535424D01*
X431003Y246169D02*
Y374719D01*
Y246169D02*
X431003Y246169D01*
X431003Y374719D02*
X431003Y374719D01*
X265608Y399746D02*
X274606Y390748D01*
X262681Y413500D02*
X265608Y410573D01*
Y399746D02*
Y410573D01*
X258521Y396991D02*
Y406398D01*
X258405Y227305D02*
Y236071D01*
X262681Y413500D02*
Y416018D01*
X263996Y242685D02*
Y246228D01*
X263326Y246898D02*
X263996Y246228D01*
X261259Y78627D02*
X264212Y75674D01*
X367066Y52311D02*
X374054Y59299D01*
X264212Y63778D02*
X275679Y52311D01*
X367066D01*
X348560Y239983D02*
X348757Y239786D01*
X415172D01*
X287438Y242483D02*
X349596D01*
X349793Y242286D02*
X414136D01*
X284646Y245276D02*
X287438Y242483D01*
X284646Y237191D02*
X287438Y239983D01*
X348560D01*
X349596Y242483D02*
X349793Y242286D01*
X263779Y569882D02*
X272638Y561024D01*
X374016D01*
X365195Y555789D02*
X366142D01*
X363539Y554134D02*
X365195Y555789D01*
X256058Y566777D02*
X268701Y554134D01*
X363539D01*
X263779Y569882D02*
Y579792D01*
X274606Y390748D02*
X373031D01*
X270177Y385335D02*
X366395D01*
X258521Y396991D02*
X270177Y385335D01*
X373356Y226378D02*
X374016D01*
X269511Y224410D02*
X371387D01*
X264764Y229156D02*
X269511Y224410D01*
X371387D02*
X373356Y226378D01*
X363578Y218504D02*
X365233Y220160D01*
X267206Y218504D02*
X363578D01*
X365233Y220160D02*
X366180D01*
X258405Y227305D02*
X267206Y218504D01*
X284449Y582283D02*
X285050D01*
X386306Y577756D02*
X429674Y534388D01*
X387342Y580256D02*
X430710Y536888D01*
X287077Y580256D02*
X387342D01*
X285050Y582283D02*
X287077Y580256D01*
X287323Y577756D02*
X386306D01*
X284449Y574803D02*
Y574882D01*
X287323Y577756D01*
X256058Y566777D02*
Y571850D01*
X261485Y582087D02*
X263779Y579792D01*
X263996Y242685D02*
X264764Y241917D01*
Y229156D02*
Y241917D01*
X257259Y68158D02*
Y69142D01*
Y59953D02*
Y68158D01*
X297802Y74448D02*
X324234D01*
X295431Y72077D02*
X297802Y74448D01*
X284449Y68898D02*
X287628Y72077D01*
X294396Y74577D02*
X296767Y76948D01*
X323199D01*
X284449Y77756D02*
X287628Y74577D01*
X294396D01*
X287628Y72077D02*
X295431D01*
X323199Y76948D02*
X384940Y138689D01*
X324234Y74448D02*
X387440Y137653D01*
X384940Y138689D02*
Y200106D01*
X387440Y137653D02*
Y199071D01*
X257259Y59953D02*
X274645Y42567D01*
X264212Y63778D02*
Y75674D01*
X261259Y78627D02*
Y79439D01*
X326889Y42567D02*
X341653Y27803D01*
X274645Y42567D02*
X326889D01*
X430710Y536888D02*
X430710D01*
X429674Y534388D02*
X429674D01*
X430710Y536888D02*
X432174Y535424D01*
X384940Y200106D02*
X431003Y246169D01*
X387440Y199071D02*
X433503Y245134D01*
D49*
X469417Y282213D02*
D03*
X483339Y296134D02*
D03*
X469417D02*
D03*
X483339Y282213D02*
D03*
D50*
X492126Y259646D02*
D03*
Y318701D02*
D03*
D51*
X476378D02*
D03*
Y259646D02*
D03*
D52*
X476699Y91654D02*
D03*
X436699D02*
D03*
Y51653D02*
D03*
X476699D02*
D03*
X477093Y168425D02*
D03*
X437093D02*
D03*
Y128425D02*
D03*
X477093D02*
D03*
D53*
X451659Y71653D02*
D03*
X452053Y148425D02*
D03*
D54*
X131102Y566535D02*
D03*
Y664961D02*
D03*
Y398031D02*
D03*
Y496457D02*
D03*
Y159449D02*
D03*
Y61024D02*
D03*
Y229528D02*
D03*
Y327953D02*
D03*
D55*
X125512Y632106D02*
D03*
Y621201D02*
D03*
Y610295D02*
D03*
Y599390D02*
D03*
X136693Y604843D02*
D03*
Y637559D02*
D03*
Y626653D02*
D03*
Y615748D02*
D03*
X125512Y463602D02*
D03*
Y452697D02*
D03*
Y441791D02*
D03*
Y430886D02*
D03*
X136693Y436339D02*
D03*
Y469055D02*
D03*
Y458150D02*
D03*
Y447244D02*
D03*
X125512Y126594D02*
D03*
X136693Y110236D02*
D03*
Y121142D02*
D03*
Y132047D02*
D03*
Y99331D02*
D03*
X125512Y93878D02*
D03*
Y104783D02*
D03*
Y115689D02*
D03*
Y295098D02*
D03*
X136693Y289646D02*
D03*
Y278740D02*
D03*
Y300551D02*
D03*
Y267835D02*
D03*
X125512Y262382D02*
D03*
Y273287D02*
D03*
Y284193D02*
D03*
D56*
X136693Y593937D02*
D03*
Y425433D02*
D03*
Y88425D02*
D03*
Y256929D02*
D03*
D57*
X456919Y460807D02*
D03*
X446919Y465807D02*
D03*
X456919Y470807D02*
D03*
X446919Y475807D02*
D03*
X456919Y480807D02*
D03*
X446919Y485807D02*
D03*
X456919Y490807D02*
D03*
X446919Y495807D02*
D03*
D58*
X481919Y455827D02*
D03*
Y500827D02*
D03*
D59*
X493701Y447815D02*
D03*
Y508740D02*
D03*
D60*
X400826Y312383D02*
D03*
Y143465D02*
D03*
Y480890D02*
D03*
Y648794D02*
D03*
D61*
Y292383D02*
D03*
Y262383D02*
D03*
X320826D02*
D03*
Y302382D02*
D03*
Y342383D02*
D03*
X400826Y123465D02*
D03*
Y93465D02*
D03*
X320826D02*
D03*
Y133465D02*
D03*
Y173465D02*
D03*
Y510889D02*
D03*
Y470890D02*
D03*
Y430890D02*
D03*
X400826D02*
D03*
Y460889D02*
D03*
X320826Y678794D02*
D03*
Y638794D02*
D03*
Y598794D02*
D03*
X400826D02*
D03*
Y628794D02*
D03*
D62*
X113612Y688976D02*
D03*
X485235Y29528D02*
D03*
X113583D02*
D03*
X485223Y688976D02*
D03*
D63*
X341653Y27803D02*
D03*
X351653D02*
D03*
X361653D02*
D03*
X381653D02*
D03*
X391653D02*
D03*
D64*
X434547Y463779D02*
D03*
X334547Y454921D02*
D03*
X333169Y283563D02*
D03*
X331791Y115453D02*
D03*
X335531Y155413D02*
D03*
X272342Y122933D02*
D03*
X273524Y149902D02*
D03*
X273721Y176279D02*
D03*
X274705Y289075D02*
D03*
X274902Y317618D02*
D03*
X275098Y345177D02*
D03*
X335335Y323130D02*
D03*
X334744Y490945D02*
D03*
X274705Y457677D02*
D03*
X276476Y486811D02*
D03*
X276673Y512992D02*
D03*
X336024Y660630D02*
D03*
X275000Y626673D02*
D03*
X274803Y656004D02*
D03*
X275098Y681595D02*
D03*
X257856Y405054D02*
D03*
X258405Y236071D02*
D03*
X257259Y68158D02*
D03*
X306693Y29134D02*
D03*
X353543Y400000D02*
D03*
X353937Y570079D02*
D03*
Y538818D02*
D03*
Y489906D02*
D03*
Y441670D02*
D03*
Y370130D02*
D03*
Y316881D02*
D03*
Y267427D02*
D03*
Y231928D02*
D03*
Y199545D02*
D03*
Y167026D02*
D03*
Y128818D02*
D03*
Y91732D02*
D03*
X284646Y245276D02*
D03*
Y237191D02*
D03*
X108268Y149016D02*
D03*
Y110480D02*
D03*
Y75508D02*
D03*
Y317520D02*
D03*
Y278984D02*
D03*
Y244012D02*
D03*
Y486024D02*
D03*
Y447487D02*
D03*
Y412516D02*
D03*
Y581020D02*
D03*
Y615991D02*
D03*
Y654528D02*
D03*
X366180Y220160D02*
D03*
X284449Y582283D02*
D03*
Y574803D02*
D03*
X374016Y561024D02*
D03*
X366142Y555789D02*
D03*
X309055Y568898D02*
D03*
X261771Y547167D02*
D03*
X373031Y390748D02*
D03*
X374016Y226378D02*
D03*
X284449Y77756D02*
D03*
Y68898D02*
D03*
X163818Y176621D02*
D03*
X193346D02*
D03*
X218936D02*
D03*
X246495D02*
D03*
X163818Y344827D02*
D03*
X193346D02*
D03*
X218936D02*
D03*
X246495D02*
D03*
X163818Y512494D02*
D03*
X193346D02*
D03*
X218936D02*
D03*
X246495D02*
D03*
X163818Y681643D02*
D03*
X193346D02*
D03*
X218936D02*
D03*
X246495D02*
D03*
X158897Y599260D02*
D03*
X164802Y595323D02*
D03*
X154960Y593354D02*
D03*
X158897Y430756D02*
D03*
X164802Y426819D02*
D03*
X154960Y424850D02*
D03*
X158897Y262252D02*
D03*
X164802Y258315D02*
D03*
X154960Y256347D02*
D03*
X186968Y583530D02*
D03*
Y547167D02*
D03*
Y613112D02*
D03*
X238189Y578740D02*
D03*
X261771Y613112D02*
D03*
X255865Y572758D02*
D03*
X261771Y582601D02*
D03*
X262342Y244929D02*
D03*
Y209496D02*
D03*
Y275441D02*
D03*
X238917Y241189D02*
D03*
X187539Y245859D02*
D03*
Y275441D02*
D03*
Y209496D02*
D03*
X219035Y298079D02*
D03*
X193444Y317764D02*
D03*
X219035D02*
D03*
X246594Y298079D02*
D03*
Y317764D02*
D03*
X193444Y298079D02*
D03*
X163917Y317764D02*
D03*
Y298079D02*
D03*
X305512Y232283D02*
D03*
X365590Y42567D02*
D03*
X374054Y59299D02*
D03*
X261259Y107527D02*
D03*
X186456Y41583D02*
D03*
Y77945D02*
D03*
X154960Y87843D02*
D03*
X164802Y89811D02*
D03*
X158897Y93748D02*
D03*
X186456Y107527D02*
D03*
X261259Y78455D02*
D03*
Y41583D02*
D03*
X287552Y60847D02*
D03*
X193346Y128197D02*
D03*
Y147882D02*
D03*
X218936Y128197D02*
D03*
Y147882D02*
D03*
X246495Y128197D02*
D03*
Y147882D02*
D03*
X239409Y73669D02*
D03*
X163818Y128197D02*
D03*
Y147882D02*
D03*
X366395Y385335D02*
D03*
X304724Y400000D02*
D03*
X283979Y406142D02*
D03*
Y414910D02*
D03*
X164033Y486122D02*
D03*
X193561D02*
D03*
X219151D02*
D03*
X246710D02*
D03*
X164033Y466437D02*
D03*
X193561D02*
D03*
X219151D02*
D03*
X246710D02*
D03*
X261793Y444424D02*
D03*
X186990D02*
D03*
Y378479D02*
D03*
X261793Y378479D02*
D03*
X186990Y414842D02*
D03*
X261793Y414896D02*
D03*
X239156Y409975D02*
D03*
X246495Y636071D02*
D03*
X218936D02*
D03*
X193346D02*
D03*
X163818D02*
D03*
X246495Y655756D02*
D03*
X218936D02*
D03*
X193346D02*
D03*
X163818D02*
D03*
M02*
