G04*
G04 #@! TF.GenerationSoftware,Altium Limited,Altium Designer,24.3.1 (35)*
G04*
G04 Layer_Color=8421504*
%FSLAX25Y25*%
%MOIN*%
G70*
G04*
G04 #@! TF.SameCoordinates,EEDA5BF7-024B-424F-8FF9-F1D75A6893A5*
G04*
G04*
G04 #@! TF.FilePolarity,Positive*
G04*
G01*
G75*
%ADD17R,0.03543X0.02756*%
G04:AMPARAMS|DCode=18|XSize=166.93mil|YSize=150mil|CornerRadius=15mil|HoleSize=0mil|Usage=FLASHONLY|Rotation=180.000|XOffset=0mil|YOffset=0mil|HoleType=Round|Shape=RoundedRectangle|*
%AMROUNDEDRECTD18*
21,1,0.16693,0.12000,0,0,180.0*
21,1,0.13693,0.15000,0,0,180.0*
1,1,0.03000,-0.06847,0.06000*
1,1,0.03000,0.06847,0.06000*
1,1,0.03000,0.06847,-0.06000*
1,1,0.03000,-0.06847,-0.06000*
%
%ADD18ROUNDEDRECTD18*%
%ADD19R,0.06496X0.04724*%
%ADD20R,0.02756X0.03543*%
%ADD21R,0.04724X0.06496*%
%ADD22R,0.02165X0.07874*%
%ADD23R,0.02165X0.07874*%
%ADD24R,0.03347X0.03740*%
D17*
X288189Y292126D02*
D03*
Y297638D02*
D03*
Y481102D02*
D03*
Y475591D02*
D03*
Y466338D02*
D03*
Y460826D02*
D03*
X283465Y649409D02*
D03*
Y643898D02*
D03*
Y634646D02*
D03*
Y629134D02*
D03*
X413386Y60236D02*
D03*
Y65748D02*
D03*
X405512Y60236D02*
D03*
Y65748D02*
D03*
X397638Y60236D02*
D03*
Y65748D02*
D03*
X288189Y307109D02*
D03*
Y312621D02*
D03*
X246023Y571971D02*
D03*
Y577483D02*
D03*
X251928Y585357D02*
D03*
Y579845D02*
D03*
X246082Y234673D02*
D03*
Y240185D02*
D03*
X251987Y248059D02*
D03*
Y242547D02*
D03*
X296850Y297638D02*
D03*
Y292126D02*
D03*
Y312621D02*
D03*
Y307109D02*
D03*
X288189Y129134D02*
D03*
Y123622D02*
D03*
X296850Y129134D02*
D03*
Y123622D02*
D03*
Y144095D02*
D03*
Y138583D02*
D03*
X246023Y66732D02*
D03*
Y72244D02*
D03*
X251928Y80118D02*
D03*
Y74606D02*
D03*
X288189Y144095D02*
D03*
Y138583D02*
D03*
X246023Y409286D02*
D03*
Y403774D02*
D03*
X251928Y411648D02*
D03*
Y417160D02*
D03*
X296850Y475591D02*
D03*
Y481102D02*
D03*
Y460826D02*
D03*
Y466338D02*
D03*
Y643898D02*
D03*
Y649409D02*
D03*
Y629134D02*
D03*
Y634646D02*
D03*
D18*
X418543Y29528D02*
D03*
X443661D02*
D03*
D19*
X496063Y195276D02*
D03*
Y206299D02*
D03*
X480315Y195276D02*
D03*
Y206299D02*
D03*
X464567Y195276D02*
D03*
Y206299D02*
D03*
X448819Y195276D02*
D03*
Y206299D02*
D03*
X163386Y587205D02*
D03*
Y576181D02*
D03*
Y249606D02*
D03*
Y238583D02*
D03*
Y81299D02*
D03*
Y70276D02*
D03*
Y407874D02*
D03*
Y418898D02*
D03*
D20*
X396457Y362205D02*
D03*
X390945D02*
D03*
X223188Y558979D02*
D03*
X217676D02*
D03*
X199566Y582601D02*
D03*
X194054D02*
D03*
X223188Y602286D02*
D03*
X217676D02*
D03*
X223247Y221681D02*
D03*
X217736D02*
D03*
X223247Y264988D02*
D03*
X217736D02*
D03*
X199625Y245303D02*
D03*
X194113D02*
D03*
X333471Y55362D02*
D03*
X338983D02*
D03*
X348136Y55362D02*
D03*
X353648D02*
D03*
X333471Y71110D02*
D03*
X338983D02*
D03*
X348136Y71110D02*
D03*
X353648D02*
D03*
X333471Y63236D02*
D03*
X338983D02*
D03*
X348136Y63236D02*
D03*
X353648D02*
D03*
X223188Y53740D02*
D03*
X217676D02*
D03*
X199566Y77362D02*
D03*
X194054D02*
D03*
X223188Y97047D02*
D03*
X217676D02*
D03*
X390945Y192913D02*
D03*
X396457D02*
D03*
X217676Y390782D02*
D03*
X223188D02*
D03*
X396457Y531496D02*
D03*
X390945D02*
D03*
X217676Y434089D02*
D03*
X223188D02*
D03*
X194054Y414404D02*
D03*
X199566D02*
D03*
X396457Y578740D02*
D03*
X390945D02*
D03*
D21*
X225590Y547244D02*
D03*
X214567D02*
D03*
X192480Y568821D02*
D03*
X181456D02*
D03*
X192480Y592443D02*
D03*
X181456D02*
D03*
X225944Y614097D02*
D03*
X214921D02*
D03*
X225590Y209842D02*
D03*
X214567D02*
D03*
X226003Y276799D02*
D03*
X214980D02*
D03*
X192539Y231524D02*
D03*
X181515D02*
D03*
X192539Y255146D02*
D03*
X181515D02*
D03*
X225944Y41929D02*
D03*
X214921D02*
D03*
X192480Y63583D02*
D03*
X181456D02*
D03*
X192480Y87205D02*
D03*
X181456D02*
D03*
X225944Y108858D02*
D03*
X214921D02*
D03*
X181456Y400625D02*
D03*
X192480D02*
D03*
X214173Y378740D02*
D03*
X225197D02*
D03*
X181456Y424247D02*
D03*
X192480D02*
D03*
X214921Y445900D02*
D03*
X225944D02*
D03*
D22*
X212401Y570790D02*
D03*
X217401D02*
D03*
X222401D02*
D03*
X227401D02*
D03*
X212460Y233492D02*
D03*
X217460D02*
D03*
X222460D02*
D03*
X227460D02*
D03*
X212401Y65551D02*
D03*
X217401D02*
D03*
X222401D02*
D03*
X227401D02*
D03*
Y402593D02*
D03*
X222401D02*
D03*
X217401D02*
D03*
X212401D02*
D03*
D23*
Y590081D02*
D03*
X217401D02*
D03*
X222401D02*
D03*
X227401D02*
D03*
X212460Y252783D02*
D03*
X217460D02*
D03*
X222460D02*
D03*
X227460D02*
D03*
X212401Y84842D02*
D03*
X217401D02*
D03*
X222401D02*
D03*
X227401D02*
D03*
Y421884D02*
D03*
X222401D02*
D03*
X217401D02*
D03*
X212401D02*
D03*
D24*
X271023Y574727D02*
D03*
X276141D02*
D03*
X271023Y582601D02*
D03*
X276141D02*
D03*
X271082Y245303D02*
D03*
X276200D02*
D03*
X271082Y237429D02*
D03*
X276200D02*
D03*
X271023Y69488D02*
D03*
X276141D02*
D03*
X271023Y77362D02*
D03*
X276141D02*
D03*
Y406530D02*
D03*
X271023D02*
D03*
X276141Y414404D02*
D03*
X271023D02*
D03*
M02*
