M48
;Layer_Color=9474304
;FILE_FORMAT=2:5
INCH,TZ
;TYPE=PLATED
T01F00S00C0.02800
T02F00S00C0.02992
T03F00S00C0.03543
T04F00S00C0.04291
T05F00S00C0.05118
T06F00S00C0.05315
T07F00S00C0.05512
T08F00S00C0.06299
T09F00S00C0.08268
T10F00S00C0.08858
T11F00S00C0.11220
T12F00S00C0.12598
;TYPE=NON_PLATED
T13F00S00C0.12795
T14F00S00C0.13386
%
T01
X108268Y75508
Y110480
Y149016
X154960Y87843
X158897Y93748
X164802Y89811
X186456Y77945
Y107527
X193346Y128197
Y147882
X218936
Y128197
X246495
Y147882
X273524Y149902
X272342Y122933
X261259Y107527
Y78455
X257259Y68158
X239409Y73669
X284449Y77756
Y68898
X287552Y60847
X261259Y41583
X306693Y29134
X186456Y41583
X163818Y128197
Y147882
X335531Y155413
X331791Y115453
X353937Y128818
Y91732
X374054Y59299
X365590Y42567
X480315Y187008
X448819
X458661Y259604
X446573Y275425
X440945Y284541
X452756Y293564
X353937Y267427
Y231928
X366180Y220160
X374016Y226378
X353937Y199545
Y167026
X333169Y283563
X274705Y289075
X262342Y275441
Y244929
X258405Y236071
X238917Y241189
X284646Y237191
Y245276
X305512Y232283
X262342Y209496
X273721Y176279
X246495Y176621
X218936
X193346
X163818
X187539Y209496
Y245859
Y275441
X193444Y298079
X219035
X246594
X163917
X164802Y258315
X158897Y262252
X154960Y256347
X108268Y244012
Y278984
Y317520
Y412516
Y447487
X154960Y424850
X158897Y430756
X164802Y426819
X186990Y414842
Y444424
X193561Y466437
X219151
X246710
X274705Y457677
X261793Y444424
Y414896
X257856Y405054
X239156Y409975
X283979Y406142
Y414910
X304724Y400000
X261793Y378479
X275098Y345177
X274902Y317618
X246594Y317764
X246495Y344827
X218936
X193346
X193444Y317764
X219035
X163917
X163818Y344827
X186990Y378479
X164033Y466437
X334547Y454921
X353937Y441670
X353543Y400000
X366395Y385335
X373031Y390748
X353937Y370130
Y316881
X335335Y323130
X334744Y490945
X353937Y489906
Y538818
X366142Y555789
X374016Y561024
X353937Y570079
X433425Y512285
X276673Y512992
X276476Y486811
X246710Y486122
X246495Y512494
X218936
X193346
X193561Y486122
X219151
X164033
X163818Y512494
X186968Y547167
Y583530
Y613112
X164802Y595323
X158897Y599260
X238189Y578740
X255865Y572758
X261771Y582601
X284449Y582283
Y574803
X309055Y568898
X261771Y547167
Y613112
X154960Y593354
X108268Y581020
Y615991
Y486024
Y654528
X163818Y655756
Y636071
X193346
Y655756
X218936
Y636071
X246495
Y655756
Y681643
X218936
X193346
X163818
X275098Y681595
X274803Y656004
X275000Y626673
X336024Y660630
T02
X341653Y27803
X351653
X361653
X381653
X391653
T03
X446919Y505374
Y515374
Y525374
Y535374
X456919Y530374
Y520374
Y510374
Y500374
T04
X125512Y93878
Y104783
Y115689
Y126594
X136693Y132047
Y121142
Y110236
Y99331
Y88425
Y256929
Y267835
Y278740
Y289646
Y300551
X125512Y295098
Y284193
Y273287
Y262382
Y430886
Y441791
Y452697
Y463602
X136693Y458150
Y447244
Y436339
Y425433
Y469055
Y593937
Y604843
Y615748
X125512Y621201
Y610295
Y599390
Y632106
X136693Y637559
Y626653
T05
X469417Y270598
Y284520
X483339
Y270598
Y388709
Y402630
X469417
Y388709
T06
X436699Y51850
Y91850
X437093Y136496
X477093
X476699Y91850
Y51850
X477093Y176496
X437093
T07
X320826Y93465
Y133465
X400826Y143465
Y123465
Y93465
X320826Y173465
Y262383
Y302382
X400826Y312383
Y292383
Y262383
X320826Y342383
Y430890
X400826
Y460889
Y480890
X320826Y470890
Y510889
Y598794
X400826
Y628794
Y648794
X320826Y638794
Y678794
T08
X493701Y487382
Y548307
T09
X476378Y248031
Y307087
Y366142
Y425197
T10
X451659Y71850
X452053Y156496
T11
X492126Y248031
Y307087
Y366142
Y425197
T12
X131102Y61024
Y159449
Y229528
Y327953
Y398031
Y496457
Y566535
Y664961
T13
X481919Y495394
Y540394
T14
X113583Y29528
X485235
X113612Y688976
X485223
M30
